<?xml version="1.0" encoding="utf-8"?>
<!-- Generator: Adobe Illustrator 27.5.0, SVG Export Plug-In . SVG Version: 6.00 Build 0)  -->
<svg version="1.1" xmlns="http://www.w3.org/2000/svg" xmlns:xlink="http://www.w3.org/1999/xlink" x="0px" y="0px"
	 viewBox="0 0 800 800" style="enable-background:new 0 0 800 800;" xml:space="preserve">
<g id="Background">
	<g id="Capa_3">
		<polygon style="fill:#47A2B4;" points="800,800 0.5,800 0,0 800,0 		"/>
	</g>
	<g>
		<g>
			<path style="fill:#007E97;" d="M288.492,774.285v-0.256c-0.349,0.398-0.691,0.723-1.03,0.973c-0.339,0.25-0.706,0.441-1.102,0.57
				c-0.396,0.131-0.827,0.195-1.296,0.195c-0.621,0-1.195-0.131-1.725-0.395c-0.528-0.262-0.985-0.639-1.371-1.125
				c-0.388-0.488-0.68-1.06-0.879-1.719c-0.199-0.66-0.3-1.371-0.3-2.137c0-1.621,0.396-2.887,1.188-3.791
				c0.792-0.904,1.833-1.357,3.125-1.357c0.747,0,1.377,0.129,1.89,0.383c0.514,0.258,1.014,0.652,1.501,1.184v-3.828
				c0-0.531,0.105-0.934,0.318-1.205c0.212-0.273,0.514-0.408,0.907-0.408c0.393,0,0.694,0.125,0.906,0.375
				c0.213,0.25,0.318,0.617,0.318,1.105v11.436c0,0.494-0.113,0.865-0.342,1.111c-0.228,0.246-0.521,0.371-0.883,0.371
				c-0.354,0-0.648-0.129-0.879-0.385C288.607,775.125,288.492,774.76,288.492,774.285z M283.392,770.477
				c0,0.703,0.109,1.301,0.328,1.795c0.219,0.494,0.518,0.867,0.897,1.115c0.38,0.252,0.795,0.377,1.244,0.377
				c0.456,0,0.872-0.119,1.249-0.357c0.377-0.236,0.678-0.602,0.902-1.09c0.225-0.492,0.337-1.106,0.337-1.84
				c0-0.689-0.112-1.283-0.337-1.781c-0.225-0.496-0.528-0.877-0.912-1.141c-0.383-0.262-0.803-0.393-1.258-0.393
				c-0.475,0-0.899,0.135-1.273,0.404c-0.373,0.268-0.663,0.654-0.868,1.158C283.494,769.228,283.392,769.813,283.392,770.477z"/>
			<path style="fill:#007E97;" d="M299.926,771.133h-5.071c0.007,0.588,0.125,1.107,0.356,1.557c0.23,0.451,0.538,0.789,0.921,1.018
				c0.384,0.229,0.807,0.34,1.269,0.34c0.31,0,0.593-0.035,0.85-0.107c0.257-0.074,0.505-0.185,0.746-0.342
				c0.241-0.154,0.462-0.322,0.665-0.5c0.202-0.178,0.464-0.418,0.788-0.723c0.133-0.113,0.323-0.17,0.57-0.17
				c0.266,0,0.48,0.074,0.645,0.219c0.165,0.146,0.248,0.352,0.248,0.617c0,0.234-0.093,0.508-0.275,0.822
				c-0.185,0.313-0.462,0.613-0.831,0.902c-0.372,0.287-0.836,0.525-1.397,0.717c-0.56,0.189-1.204,0.285-1.933,0.285
				c-1.664,0-2.96-0.477-3.884-1.426c-0.925-0.949-1.387-2.238-1.387-3.865c0-0.766,0.113-1.477,0.342-2.131
				c0.228-0.656,0.56-1.219,0.997-1.688c0.437-0.469,0.975-0.826,1.615-1.078c0.639-0.25,1.349-0.373,2.127-0.373
				c1.013,0,1.882,0.211,2.607,0.641c0.726,0.426,1.27,0.979,1.63,1.656c0.359,0.678,0.541,1.369,0.541,2.07
				c0,0.652-0.186,1.074-0.56,1.27C301.131,771.035,300.604,771.133,299.926,771.133z M294.854,769.66h4.702
				c-0.063-0.887-0.304-1.551-0.718-1.99c-0.415-0.439-0.96-0.66-1.638-0.66c-0.647,0-1.177,0.223-1.591,0.67
				C295.195,768.125,294.944,768.787,294.854,769.66z"/>
			<path style="fill:#007E97;" d="M311.741,772.375c0,0.717-0.174,1.33-0.522,1.84c-0.348,0.51-0.862,0.896-1.544,1.158
				c-0.68,0.264-1.508,0.395-2.483,0.395c-0.931,0-1.729-0.143-2.394-0.428c-0.664-0.285-1.155-0.643-1.472-1.068
				c-0.316-0.428-0.475-0.856-0.475-1.287c0-0.285,0.1-0.529,0.304-0.73c0.202-0.203,0.459-0.305,0.77-0.305
				c0.271,0,0.48,0.066,0.626,0.199c0.147,0.133,0.286,0.32,0.418,0.561c0.266,0.463,0.585,0.807,0.955,1.035
				s0.875,0.342,1.516,0.342c0.519,0,0.944-0.115,1.277-0.346c0.332-0.232,0.498-0.496,0.498-0.795c0-0.455-0.172-0.787-0.517-0.996
				c-0.346-0.209-0.914-0.408-1.705-0.6c-0.893-0.221-1.619-0.453-2.18-0.697c-0.56-0.242-1.009-0.564-1.344-0.963
				c-0.336-0.4-0.504-0.891-0.504-1.473c0-0.52,0.155-1.01,0.466-1.473c0.311-0.461,0.767-0.83,1.373-1.106
				c0.603-0.277,1.333-0.414,2.188-0.414c0.671,0,1.274,0.068,1.809,0.209c0.536,0.139,0.983,0.326,1.34,0.56
				c0.358,0.234,0.63,0.494,0.816,0.777c0.187,0.285,0.28,0.564,0.28,0.838c0,0.297-0.1,0.541-0.299,0.731
				c-0.199,0.19-0.482,0.285-0.851,0.285c-0.266,0-0.492-0.076-0.679-0.229c-0.187-0.152-0.4-0.379-0.641-0.684
				c-0.196-0.252-0.427-0.455-0.693-0.607c-0.266-0.152-0.627-0.229-1.083-0.229c-0.469,0-0.857,0.1-1.168,0.301
				c-0.31,0.197-0.466,0.445-0.466,0.744c0,0.273,0.114,0.496,0.342,0.67c0.229,0.174,0.535,0.318,0.922,0.432
				c0.387,0.113,0.917,0.252,1.596,0.418c0.804,0.197,1.46,0.432,1.971,0.703c0.509,0.271,0.896,0.594,1.159,0.965
				C311.61,771.478,311.741,771.9,311.741,772.375z"/>
			<path style="fill:#007E97;" d="M314.39,764.019c-0.36,0-0.669-0.111-0.926-0.334c-0.256-0.221-0.385-0.533-0.385-0.939
				c0-0.369,0.132-0.67,0.395-0.908c0.263-0.238,0.568-0.356,0.916-0.356c0.336,0,0.634,0.107,0.893,0.322
				c0.26,0.217,0.391,0.529,0.391,0.941c0,0.398-0.128,0.711-0.381,0.935S314.738,764.019,314.39,764.019z M315.673,766.697v7.492
				c0,0.52-0.124,0.914-0.371,1.18c-0.247,0.266-0.56,0.398-0.94,0.398c-0.38,0-0.688-0.137-0.926-0.408
				c-0.238-0.273-0.356-0.662-0.356-1.17v-7.418c0-0.512,0.118-0.898,0.356-1.158c0.237-0.26,0.546-0.389,0.926-0.389
				c0.381,0,0.693,0.129,0.94,0.389C315.549,765.873,315.673,766.234,315.673,766.697z"/>
			<path style="fill:#007E97;" d="M327.031,767.125v7.531c0,0.861-0.093,1.602-0.276,2.223c-0.183,0.619-0.478,1.133-0.883,1.539
				c-0.405,0.404-0.936,0.705-1.591,0.9c-0.655,0.197-1.471,0.295-2.446,0.295c-0.893,0-1.69-0.125-2.394-0.375
				c-0.702-0.25-1.243-0.572-1.624-0.969c-0.379-0.394-0.57-0.803-0.57-1.221c0-0.316,0.108-0.574,0.324-0.773
				c0.215-0.199,0.475-0.299,0.778-0.299c0.38,0,0.712,0.168,0.997,0.502c0.139,0.172,0.283,0.346,0.432,0.52
				c0.149,0.174,0.315,0.322,0.494,0.447c0.181,0.121,0.397,0.213,0.65,0.273c0.254,0.059,0.546,0.09,0.874,0.09
				c0.672,0,1.192-0.092,1.563-0.279c0.37-0.188,0.63-0.449,0.778-0.785c0.149-0.334,0.236-0.693,0.262-1.076
				c0.025-0.385,0.044-1,0.057-1.85c-0.399,0.559-0.859,0.984-1.383,1.275c-0.521,0.291-1.145,0.436-1.865,0.436
				c-0.868,0-1.626-0.221-2.275-0.664c-0.648-0.443-1.147-1.064-1.495-1.861c-0.349-0.799-0.523-1.719-0.523-2.764
				c0-0.779,0.105-1.482,0.317-2.109c0.213-0.627,0.516-1.156,0.907-1.586c0.393-0.432,0.846-0.756,1.358-0.975
				c0.513-0.217,1.076-0.326,1.69-0.326c0.734,0,1.371,0.141,1.909,0.422c0.538,0.283,1.039,0.725,1.501,1.326v-0.354
				c0-0.449,0.11-0.797,0.332-1.045c0.222-0.246,0.507-0.369,0.855-0.369c0.5,0,0.832,0.164,0.996,0.488
				C326.948,766.039,327.031,766.51,327.031,767.125z M319.519,770.41c0,1.051,0.229,1.846,0.688,2.385
				c0.459,0.539,1.054,0.807,1.781,0.807c0.431,0,0.837-0.115,1.22-0.346c0.384-0.232,0.695-0.58,0.937-1.045
				c0.24-0.467,0.361-1.031,0.361-1.695c0-1.057-0.232-1.881-0.698-2.469c-0.466-0.59-1.078-0.885-1.839-0.885
				c-0.741,0-1.334,0.283-1.78,0.846S319.519,769.373,319.519,770.41z"/>
			<path style="fill:#007E97;" d="M331.152,766.658v0.314c0.455-0.602,0.954-1.043,1.495-1.326c0.542-0.281,1.163-0.422,1.866-0.422
				c0.684,0,1.295,0.148,1.834,0.447c0.537,0.297,0.94,0.719,1.205,1.262c0.172,0.316,0.282,0.66,0.333,1.025
				c0.051,0.369,0.077,0.836,0.077,1.406v4.824c0,0.52-0.119,0.914-0.357,1.18c-0.237,0.266-0.546,0.398-0.926,0.398
				c-0.387,0-0.699-0.137-0.94-0.408c-0.241-0.273-0.36-0.662-0.36-1.17v-4.32c0-0.856-0.119-1.51-0.356-1.961
				c-0.238-0.453-0.711-0.68-1.421-0.68c-0.461,0-0.883,0.137-1.263,0.412c-0.38,0.277-0.658,0.656-0.836,1.137
				c-0.126,0.387-0.189,1.107-0.189,2.164v3.248c0,0.525-0.123,0.922-0.365,1.184c-0.244,0.264-0.559,0.395-0.945,0.395
				c-0.374,0-0.681-0.137-0.922-0.408c-0.24-0.273-0.36-0.662-0.36-1.17v-7.492c0-0.494,0.107-0.863,0.322-1.107
				c0.216-0.244,0.51-0.365,0.883-0.365c0.229,0,0.435,0.053,0.619,0.162c0.183,0.107,0.33,0.27,0.441,0.482
				C331.097,766.086,331.152,766.35,331.152,766.658z"/>
			<path style="fill:#007E97;" d="M346.927,771.133h-5.071c0.007,0.588,0.124,1.107,0.356,1.557c0.23,0.451,0.537,0.789,0.921,1.018
				c0.382,0.229,0.806,0.34,1.268,0.34c0.311,0,0.594-0.035,0.851-0.107c0.256-0.074,0.504-0.185,0.746-0.342
				c0.239-0.154,0.461-0.322,0.665-0.5c0.201-0.178,0.464-0.418,0.787-0.723c0.133-0.113,0.323-0.17,0.57-0.17
				c0.266,0,0.482,0.074,0.646,0.219c0.165,0.146,0.247,0.352,0.247,0.617c0,0.234-0.092,0.508-0.275,0.822
				c-0.185,0.313-0.461,0.613-0.832,0.902c-0.37,0.287-0.835,0.525-1.395,0.717c-0.561,0.189-1.205,0.285-1.933,0.285
				c-1.665,0-2.96-0.477-3.886-1.426c-0.923-0.949-1.386-2.238-1.386-3.865c0-0.766,0.114-1.477,0.342-2.131
				c0.227-0.656,0.56-1.219,0.998-1.688c0.436-0.469,0.975-0.826,1.614-1.078c0.639-0.25,1.349-0.373,2.128-0.373
				c1.013,0,1.881,0.211,2.605,0.641c0.726,0.426,1.268,0.979,1.63,1.656c0.36,0.678,0.542,1.369,0.542,2.07
				c0,0.652-0.187,1.074-0.561,1.27C348.131,771.035,347.604,771.133,346.927,771.133z M341.855,769.66h4.701
				c-0.063-0.887-0.303-1.551-0.717-1.99c-0.415-0.439-0.961-0.66-1.639-0.66c-0.647,0-1.177,0.223-1.592,0.67
				C342.194,768.125,341.944,768.787,341.855,769.66z"/>
			<path style="fill:#007E97;" d="M357.496,774.285v-0.256c-0.348,0.398-0.691,0.723-1.03,0.973c-0.339,0.25-0.705,0.441-1.102,0.57
				c-0.395,0.131-0.827,0.195-1.296,0.195c-0.621,0-1.195-0.131-1.724-0.395c-0.529-0.262-0.986-0.639-1.373-1.125
				c-0.387-0.488-0.679-1.06-0.878-1.719c-0.2-0.66-0.3-1.371-0.3-2.137c0-1.621,0.396-2.887,1.188-3.791
				c0.791-0.904,1.833-1.357,3.125-1.357c0.747,0,1.377,0.129,1.89,0.383c0.513,0.258,1.014,0.652,1.5,1.184v-3.828
				c0-0.531,0.106-0.934,0.319-1.205c0.211-0.273,0.515-0.408,0.907-0.408c0.392,0,0.694,0.125,0.906,0.375
				c0.212,0.25,0.318,0.617,0.318,1.105v11.436c0,0.494-0.113,0.865-0.342,1.111c-0.228,0.246-0.521,0.371-0.883,0.371
				c-0.354,0-0.647-0.129-0.879-0.385C357.612,775.125,357.496,774.76,357.496,774.285z M352.396,770.477
				c0,0.703,0.108,1.301,0.327,1.795c0.219,0.494,0.518,0.867,0.898,1.115c0.38,0.252,0.794,0.377,1.243,0.377
				c0.457,0,0.873-0.119,1.249-0.357c0.377-0.236,0.679-0.602,0.902-1.09c0.226-0.492,0.338-1.106,0.338-1.84
				c0-0.689-0.112-1.283-0.338-1.781c-0.224-0.496-0.528-0.877-0.911-1.141c-0.384-0.262-0.803-0.393-1.259-0.393
				c-0.475,0-0.899,0.135-1.273,0.404c-0.373,0.268-0.663,0.654-0.869,1.158C352.499,769.228,352.396,769.813,352.396,770.477z"/>
			<path style="fill:#007E97;" d="M368.095,762.85v3.961c0.487-0.506,0.984-0.895,1.491-1.164c0.506-0.268,1.134-0.402,1.881-0.402
				c0.861,0,1.615,0.203,2.266,0.611c0.647,0.41,1.151,1.002,1.51,1.777c0.357,0.773,0.537,1.695,0.537,2.76
				c0,0.785-0.101,1.504-0.3,2.16c-0.199,0.654-0.489,1.223-0.869,1.703c-0.38,0.482-0.841,0.855-1.382,1.117
				c-0.542,0.264-1.139,0.395-1.79,0.395c-0.399,0-0.775-0.047-1.126-0.143c-0.352-0.096-0.651-0.219-0.897-0.375
				c-0.246-0.154-0.457-0.315-0.632-0.481c-0.174-0.164-0.404-0.412-0.689-0.74v0.256c0,0.488-0.117,0.857-0.352,1.107
				c-0.233,0.25-0.531,0.375-0.893,0.375c-0.367,0-0.66-0.125-0.879-0.375c-0.219-0.25-0.327-0.619-0.327-1.107v-11.322
				c0-0.525,0.105-0.922,0.317-1.191c0.212-0.268,0.509-0.402,0.889-0.402c0.399,0,0.706,0.127,0.921,0.383
				C367.986,762.01,368.095,762.375,368.095,762.85z M368.218,770.553c0,1.033,0.236,1.824,0.708,2.379
				c0.472,0.555,1.091,0.832,1.856,0.832c0.652,0,1.215-0.283,1.686-0.85c0.472-0.568,0.708-1.379,0.708-2.438
				c0-0.684-0.098-1.273-0.294-1.766c-0.197-0.494-0.475-0.877-0.836-1.144c-0.361-0.27-0.782-0.404-1.264-0.404
				c-0.493,0-0.935,0.135-1.32,0.404c-0.386,0.268-0.689,0.658-0.912,1.168C368.329,769.242,368.218,769.85,368.218,770.553z"/>
			<path style="fill:#007E97;" d="M379.141,776.09l0.237-0.58l-3.191-8.035c-0.196-0.461-0.295-0.797-0.295-1.006
				c0-0.223,0.058-0.428,0.171-0.617c0.114-0.189,0.271-0.342,0.47-0.455c0.2-0.115,0.407-0.172,0.623-0.172
				c0.373,0,0.654,0.119,0.846,0.356c0.19,0.238,0.357,0.578,0.503,1.021l2.194,6.383l2.08-5.938
				c0.164-0.478,0.313-0.857,0.446-1.129c0.133-0.273,0.273-0.457,0.422-0.551c0.148-0.096,0.359-0.143,0.632-0.143
				c0.197,0,0.385,0.051,0.565,0.156c0.181,0.105,0.319,0.246,0.418,0.424c0.098,0.176,0.147,0.363,0.147,0.559
				c-0.026,0.121-0.066,0.291-0.124,0.514c-0.058,0.221-0.126,0.447-0.208,0.674l-3.382,8.854c-0.292,0.777-0.576,1.389-0.855,1.832
				c-0.278,0.443-0.646,0.785-1.106,1.021c-0.459,0.238-1.078,0.356-1.856,0.356c-0.76,0-1.33-0.082-1.709-0.246
				c-0.381-0.166-0.57-0.467-0.57-0.902c0-0.297,0.09-0.527,0.271-0.689c0.18-0.16,0.447-0.242,0.801-0.242
				c0.14,0,0.276,0.019,0.409,0.059c0.165,0.037,0.307,0.057,0.427,0.057c0.298,0,0.532-0.045,0.704-0.135
				c0.17-0.088,0.323-0.24,0.46-0.461C378.806,776.836,378.963,776.514,379.141,776.09z"/>
		</g>
		<g>
			<path style="fill:#007E97;" d="M416.703,765.449h0.618v-0.779c0-0.814,0.1-1.457,0.307-1.938
				c0.204-0.478,0.556-0.826,1.047-1.045c0.49-0.217,1.163-0.326,2.017-0.326c1.52,0,2.272,0.367,2.272,1.115
				c0,0.238-0.079,0.443-0.24,0.615c-0.154,0.168-0.343,0.256-0.558,0.256c-0.1,0-0.278-0.02-0.527-0.06
				c-0.237-0.033-0.452-0.055-0.623-0.055c-0.468,0-0.767,0.141-0.905,0.414c-0.127,0.275-0.195,0.67-0.195,1.185v0.617h0.633
				c0.991,0,1.481,0.297,1.481,0.895c0,0.42-0.127,0.691-0.393,0.805c-0.262,0.115-0.624,0.172-1.089,0.172h-0.633v6.871
				c0,0.51-0.12,0.9-0.369,1.168c-0.241,0.272-0.554,0.406-0.942,0.406c-0.367,0-0.671-0.135-0.918-0.406
				c-0.244-0.267-0.364-0.658-0.364-1.168v-6.871h-0.714c-0.389,0-0.683-0.084-0.893-0.262c-0.209-0.172-0.315-0.4-0.315-0.678
				C415.399,765.756,415.834,765.449,416.703,765.449"/>
			<path style="fill:#007E97;" d="M425.192,772.023v2.168c0,0.523-0.133,0.918-0.374,1.18c-0.247,0.266-0.559,0.394-0.938,0.394
				c-0.382,0-0.688-0.131-0.927-0.4c-0.236-0.264-0.36-0.656-0.36-1.174v-7.223c0-1.166,0.42-1.75,1.261-1.75
				c0.434,0,0.743,0.135,0.934,0.408c0.189,0.273,0.295,0.674,0.317,1.209c0.308-0.535,0.624-0.935,0.948-1.209
				c0.332-0.273,0.763-0.408,1.31-0.408c0.549,0,1.072,0.135,1.585,0.408c0.516,0.273,0.772,0.637,0.772,1.086
				c0,0.314-0.11,0.58-0.326,0.781c-0.22,0.209-0.454,0.311-0.706,0.311c-0.1,0-0.331-0.063-0.692-0.18
				c-0.365-0.113-0.689-0.172-0.963-0.172c-0.38,0-0.692,0.102-0.932,0.297c-0.242,0.205-0.431,0.498-0.564,0.887
				c-0.129,0.395-0.219,0.865-0.272,1.404C425.215,770.584,425.192,771.244,425.192,772.023"/>
			<path style="fill:#007E97;" d="M437.113,771.131h-5.074c0.009,0.588,0.124,1.109,0.354,1.559c0.235,0.445,0.54,0.785,0.925,1.016
				c0.385,0.229,0.804,0.34,1.268,0.34c0.311,0,0.593-0.033,0.85-0.111c0.254-0.068,0.505-0.186,0.745-0.34
				c0.242-0.152,0.46-0.318,0.664-0.5c0.202-0.176,0.467-0.416,0.79-0.719c0.135-0.113,0.324-0.174,0.568-0.174
				c0.269,0,0.481,0.074,0.649,0.221c0.166,0.148,0.243,0.352,0.243,0.617c0,0.236-0.089,0.508-0.268,0.82
				c-0.188,0.317-0.463,0.615-0.836,0.906c-0.374,0.285-0.839,0.527-1.397,0.713c-0.56,0.191-1.206,0.287-1.932,0.287
				c-1.671,0-2.964-0.473-3.887-1.422c-0.924-0.953-1.392-2.242-1.392-3.869c0-0.766,0.117-1.478,0.348-2.135
				c0.225-0.658,0.558-1.215,0.999-1.688c0.436-0.471,0.97-0.828,1.612-1.078c0.638-0.248,1.347-0.373,2.128-0.373
				c1.011,0,1.881,0.213,2.606,0.645c0.724,0.424,1.273,0.977,1.629,1.654c0.361,0.682,0.542,1.369,0.542,2.074
				c0,0.648-0.189,1.07-0.561,1.266C438.315,771.033,437.791,771.131,437.113,771.131 M432.039,769.656h4.701
				c-0.063-0.885-0.298-1.551-0.714-1.986c-0.418-0.443-0.959-0.66-1.641-0.66c-0.645,0-1.177,0.219-1.592,0.668
				C432.38,768.125,432.126,768.783,432.039,769.656"/>
			<path style="fill:#007E97;" d="M447.9,771.131h-5.073c0.006,0.588,0.125,1.109,0.354,1.559c0.232,0.445,0.539,0.785,0.921,1.016
				c0.383,0.229,0.806,0.34,1.272,0.34c0.308,0,0.593-0.033,0.845-0.111c0.259-0.068,0.506-0.186,0.75-0.34
				c0.242-0.152,0.46-0.318,0.664-0.5c0.199-0.176,0.464-0.416,0.788-0.719c0.135-0.113,0.326-0.174,0.568-0.174
				c0.268,0,0.483,0.074,0.65,0.221c0.165,0.148,0.24,0.352,0.24,0.617c0,0.236-0.087,0.508-0.273,0.82
				c-0.177,0.317-0.455,0.615-0.83,0.906c-0.37,0.285-0.84,0.527-1.396,0.713c-0.558,0.191-1.208,0.287-1.935,0.287
				c-1.667,0-2.959-0.473-3.887-1.422c-0.924-0.953-1.389-2.242-1.389-3.869c0-0.766,0.116-1.478,0.348-2.135
				c0.227-0.658,0.559-1.215,0.996-1.688c0.436-0.471,0.973-0.828,1.614-1.078c0.638-0.248,1.351-0.373,2.129-0.373
				c1.009,0,1.878,0.213,2.613,0.645c0.72,0.424,1.266,0.977,1.621,1.654c0.359,0.682,0.545,1.369,0.545,2.074
				c0,0.648-0.191,1.07-0.561,1.266C449.101,771.033,448.576,771.131,447.9,771.131 M442.827,769.656h4.701
				c-0.064-0.885-0.304-1.551-0.715-1.986c-0.421-0.443-0.962-0.66-1.643-0.66c-0.646,0-1.176,0.219-1.593,0.668
				C443.165,768.125,442.911,768.783,442.827,769.656"/>
			<path style="fill:#007E97;" d="M453.58,766.678v0.311c0.486-0.6,0.994-1.041,1.524-1.324c0.518-0.283,1.118-0.426,1.782-0.426
				c0.795,0,1.535,0.207,2.207,0.617c0.672,0.414,1.199,1.016,1.59,1.807c0.389,0.795,0.586,1.728,0.586,2.812
				c0,0.797-0.113,1.531-0.336,2.201c-0.225,0.668-0.537,1.227-0.93,1.68c-0.393,0.451-0.855,0.803-1.39,1.047
				c-0.542,0.24-1.111,0.363-1.728,0.363c-0.738,0-1.364-0.148-1.865-0.447c-0.503-0.293-0.982-0.734-1.441-1.307v3.893
				c0,1.137-0.416,1.711-1.244,1.711c-0.49,0-0.809-0.146-0.972-0.439c-0.151-0.299-0.233-0.725-0.233-1.291v-11.193
				c0-0.496,0.106-0.859,0.32-1.107c0.215-0.24,0.512-0.365,0.885-0.365c0.369,0,0.666,0.125,0.895,0.375
				C453.467,765.848,453.58,766.203,453.58,766.678 M458.664,770.445c0-0.684-0.107-1.273-0.315-1.762
				c-0.209-0.492-0.499-0.867-0.866-1.129c-0.367-0.262-0.782-0.396-1.232-0.396c-0.714,0-1.318,0.285-1.809,0.844
				c-0.492,0.566-0.739,1.396-0.739,2.494c0,1.025,0.244,1.832,0.735,2.406c0.487,0.572,1.086,0.857,1.813,0.857
				c0.429,0,0.83-0.125,1.197-0.371c0.371-0.254,0.665-0.627,0.884-1.127C458.553,771.76,458.664,771.154,458.664,770.445"/>
			<path style="fill:#007E97;" d="M463.881,764.012c-0.363,0-0.67-0.113-0.924-0.334c-0.26-0.223-0.387-0.533-0.387-0.938
				c0-0.367,0.131-0.67,0.397-0.91c0.262-0.234,0.566-0.356,0.914-0.356c0.34,0,0.635,0.107,0.893,0.32
				c0.26,0.219,0.391,0.533,0.391,0.945c0,0.4-0.127,0.711-0.377,0.936C464.533,763.898,464.232,764.012,463.881,764.012
				 M465.164,766.691v7.502c0,0.516-0.123,0.908-0.369,1.172c-0.25,0.27-0.56,0.4-0.941,0.4c-0.381,0-0.685-0.135-0.928-0.406
				c-0.234-0.277-0.355-0.666-0.355-1.166v-7.428c0-0.51,0.121-0.894,0.355-1.154c0.242-0.266,0.547-0.393,0.928-0.393
				c0.381,0,0.691,0.127,0.941,0.393C465.041,765.871,465.164,766.232,465.164,766.691"/>
			<path style="fill:#007E97;" d="M473.523,774.582l-2.283-3.766l-1.408,1.328v2.065c0,0.5-0.133,0.883-0.397,1.15
				c-0.258,0.272-0.566,0.406-0.906,0.406c-0.398,0-0.715-0.131-0.941-0.4c-0.227-0.264-0.344-0.656-0.344-1.174v-11.065
				c0-0.572,0.115-1.01,0.332-1.313c0.223-0.305,0.545-0.453,0.953-0.453c0.398,0,0.713,0.137,0.949,0.412
				c0.234,0.27,0.354,0.674,0.354,1.201v6.293l2.916-3.063c0.361-0.375,0.633-0.641,0.826-0.777c0.19-0.139,0.42-0.209,0.69-0.209
				c0.326,0,0.594,0.104,0.816,0.309c0.211,0.207,0.32,0.467,0.32,0.773c0,0.379-0.353,0.889-1.055,1.521l-1.377,1.264l2.658,4.182
				c0.193,0.314,0.34,0.545,0.424,0.707c0.084,0.158,0.131,0.318,0.131,0.461c0,0.414-0.115,0.734-0.342,0.977
				c-0.225,0.236-0.523,0.353-0.885,0.353c-0.316,0-0.564-0.082-0.734-0.256C474.051,775.336,473.814,775.025,473.523,774.582"/>
			<path style="fill:#007E97;" d="M479.16,775.766c-0.393,0-0.729-0.127-1.014-0.381c-0.285-0.25-0.43-0.605-0.43-1.064
				c0-0.387,0.139-0.719,0.41-0.996c0.275-0.279,0.607-0.418,1.008-0.418c0.398,0,0.736,0.139,1.023,0.412
				c0.279,0.275,0.422,0.611,0.422,1.002c0,0.451-0.143,0.807-0.422,1.059C479.871,775.639,479.539,775.766,479.16,775.766"/>
			<path style="fill:#007E97;" d="M492.059,772.555c0,0.32-0.098,0.668-0.291,1.035c-0.191,0.369-0.488,0.717-0.887,1.049
				c-0.395,0.332-0.891,0.604-1.494,0.805c-0.602,0.201-1.281,0.307-2.031,0.307c-1.605,0-2.858-0.471-3.758-1.402
				c-0.895-0.935-1.346-2.189-1.346-3.76c0-1.066,0.205-2.006,0.619-2.824c0.408-0.814,1.004-1.447,1.781-1.892
				c0.779-0.449,1.717-0.67,2.795-0.67c0.674,0,1.287,0.098,1.852,0.295c0.561,0.195,1.033,0.451,1.426,0.758
				c0.387,0.314,0.686,0.644,0.889,0.992c0.207,0.352,0.309,0.682,0.309,0.988c0,0.307-0.113,0.57-0.344,0.787
				c-0.234,0.215-0.516,0.324-0.838,0.324c-0.219,0-0.398-0.057-0.541-0.166c-0.145-0.113-0.305-0.291-0.478-0.543
				c-0.318-0.478-0.647-0.842-0.996-1.078c-0.344-0.244-0.781-0.363-1.314-0.363c-0.762,0-1.383,0.299-1.854,0.898
				c-0.467,0.596-0.703,1.42-0.703,2.453c0,0.488,0.063,0.94,0.184,1.348c0.117,0.408,0.291,0.756,0.52,1.045
				c0.23,0.287,0.504,0.504,0.826,0.654c0.324,0.152,0.682,0.225,1.065,0.225c0.521,0,0.967-0.119,1.336-0.359
				c0.377-0.242,0.703-0.607,0.986-1.104c0.158-0.291,0.328-0.518,0.51-0.684c0.182-0.162,0.408-0.248,0.676-0.248
				c0.316,0,0.58,0.123,0.785,0.361C491.951,772.025,492.059,772.285,492.059,772.555"/>
			<path style="fill:#007E97;" d="M503.248,770.494c0,0.769-0.121,1.484-0.355,2.139c-0.246,0.652-0.592,1.213-1.049,1.68
				c-0.455,0.469-1.002,0.828-1.633,1.08c-0.639,0.246-1.35,0.375-2.139,0.375c-0.785,0-1.492-0.129-2.121-0.383
				c-0.623-0.25-1.17-0.615-1.625-1.082c-0.461-0.477-0.809-1.035-1.053-1.678c-0.228-0.643-0.35-1.354-0.35-2.131
				c0-0.785,0.123-1.506,0.357-2.158c0.242-0.654,0.59-1.211,1.039-1.672c0.451-0.463,0.994-0.818,1.631-1.07
				c0.645-0.25,1.35-0.375,2.121-0.375c0.785,0,1.498,0.125,2.139,0.383c0.639,0.25,1.184,0.613,1.645,1.078
				c0.457,0.475,0.803,1.029,1.039,1.672C503.129,769.004,503.248,769.713,503.248,770.494 M500.645,770.494
				c0-1.059-0.234-1.881-0.697-2.469c-0.463-0.596-1.09-0.887-1.875-0.887c-0.508,0-0.955,0.131-1.342,0.393
				c-0.387,0.262-0.682,0.65-0.891,1.164c-0.209,0.514-0.314,1.113-0.314,1.799c0,0.68,0.102,1.268,0.309,1.773
				c0.209,0.512,0.502,0.898,0.887,1.166c0.385,0.268,0.834,0.404,1.352,0.404c0.785,0,1.412-0.295,1.875-0.891
				C500.41,772.355,500.645,771.535,500.645,770.494"/>
			<path style="fill:#007E97;" d="M513.141,770.685v3.445c0,0.547-0.121,0.951-0.369,1.228c-0.25,0.272-0.572,0.408-0.978,0.408
				c-0.393,0-0.713-0.137-0.951-0.408c-0.246-0.277-0.371-0.682-0.371-1.228V770c0-0.652-0.022-1.162-0.064-1.523
				c-0.045-0.354-0.168-0.656-0.361-0.883c-0.197-0.236-0.51-0.352-0.932-0.352c-0.85,0-1.406,0.289-1.676,0.881
				c-0.268,0.576-0.406,1.412-0.406,2.506v3.502c0,0.539-0.123,0.947-0.361,1.225c-0.25,0.273-0.568,0.412-0.965,0.412
				c-0.396,0-0.717-0.139-0.967-0.412c-0.252-0.277-0.377-0.686-0.377-1.225v-7.418c0-0.49,0.111-0.861,0.336-1.111
				c0.228-0.258,0.525-0.383,0.889-0.383c0.358,0,0.652,0.123,0.893,0.355c0.236,0.238,0.354,0.566,0.354,0.984v0.246
				c0.453-0.535,0.936-0.932,1.445-1.182c0.516-0.26,1.082-0.385,1.713-0.385c0.65,0,1.211,0.131,1.678,0.389
				c0.469,0.262,0.853,0.656,1.16,1.178c0.44-0.529,0.908-0.924,1.41-1.182c0.5-0.256,1.053-0.385,1.662-0.385
				c0.705,0,1.32,0.143,1.834,0.418c0.51,0.279,0.893,0.68,1.147,1.195c0.221,0.473,0.33,1.211,0.33,2.217v5.063
				c0,0.547-0.121,0.951-0.367,1.228c-0.246,0.272-0.574,0.408-0.979,0.408c-0.394,0-0.715-0.139-0.965-0.412
				c-0.25-0.277-0.377-0.686-0.377-1.225v-4.361c0-0.559-0.023-1.002-0.068-1.338c-0.047-0.336-0.178-0.619-0.383-0.846
				c-0.213-0.229-0.531-0.344-0.953-0.344c-0.342,0-0.666,0.105-0.975,0.307c-0.307,0.199-0.547,0.477-0.721,0.813
				C513.238,768.801,513.141,769.574,513.141,770.685"/>
		</g>
		<g>
			<path style="fill:#007E97;" d="M392.435,769.867c-0.002-0.006-0.002-0.01-0.002-0.018
				C392.434,769.857,392.434,769.861,392.435,769.867z"/>
			<path style="fill:#007E97;" d="M392.566,770.695c0.002,0,0.002,0,0.003,0c-0.05-0.236-0.089-0.471-0.119-0.701
				C392.48,770.227,392.52,770.463,392.566,770.695z"/>
			<path style="fill:#007E97;" d="M393.425,773.102c-0.006-0.01-0.011-0.021-0.018-0.033
				C393.414,773.08,393.419,773.092,393.425,773.102z"/>
			<path style="fill:#007E97;" d="M393.343,772.941c-0.023-0.043-0.044-0.09-0.066-0.133
				C393.299,772.855,393.32,772.898,393.343,772.941z"/>
			<path style="fill:#007E97;" d="M392.808,771.623c0.127,0.4,0.279,0.787,0.457,1.158c-0.181-0.379-0.33-0.768-0.454-1.158
				C392.81,771.623,392.809,771.623,392.808,771.623z"/>
			<path style="fill:#007E97;" d="M402.473,759.93c0.501,0,0.871,0.041,1.295,0.111l0.12-0.762c0,0-1.171-0.361-2.71-0.234
				l-0.121-0.416c0.479-0.1,0.838-0.525,0.838-1.033c0-0.582-0.475-1.055-1.058-1.055c-0.583,0-1.056,0.473-1.056,1.055
				c0,0.508,0.358,0.934,0.836,1.033l0.134,0.463c-1.634,0.225-2.935,0.863-2.935,0.863l0.23,0.705
				c0.988-0.33,1.846-0.529,2.624-0.613C401.433,759.965,402.006,759.93,402.473,759.93z"/>
			<path style="fill:#007E97;" d="M393.405,763.789l0.006-0.008c0.038-0.051,0.075-0.098,0.113-0.143l-0.313-0.226l-0.487-0.356
				c-0.027,0.037-0.795,0.744-1.401,2.047c-0.025-0.041-0.056-0.08-0.09-0.119c-0.182-0.197-0.435-0.299-0.759-0.293
				c-0.004,0-0.009,0-0.015,0c-0.199,0-0.337-0.066-0.427-0.148c0.09-0.113,0.144-0.256,0.144-0.412c0-0.369-0.3-0.67-0.67-0.67
				c-0.368,0-0.668,0.301-0.668,0.67c0,0.369,0.3,0.668,0.668,0.668c0.059,0,0.113-0.01,0.167-0.019
				c0.165,0.182,0.426,0.342,0.808,0.334c0.197-0.002,0.341,0.049,0.438,0.154c0.111,0.121,0.148,0.297,0.16,0.428
				c-0.001,0.002-0.001,0.006-0.003,0.006c-0.436,1.189-0.311,2.67-0.311,2.67l1.058,0.041c0.022-0.539,0.099-1.482,0.371-2.231
				C392.719,764.732,393.378,763.826,393.405,763.789z"/>
			<path style="fill:#007E97;" d="M411.672,760.814c-0.368,0-0.669,0.299-0.669,0.668c0,0.059,0.009,0.113,0.023,0.166
				c-0.184,0.166-0.343,0.428-0.337,0.811c0.003,0.197-0.048,0.34-0.154,0.435c-0.085,0.076-0.191,0.115-0.296,0.141
				c-0.787-1.102-1.756-1.775-1.756-1.775l-0.759,0.814c0.573,0.522,1.159,1.174,1.729,1.99c0.394,0.563,0.799,1.289,1.136,2.014
				l1.024-0.486c0,0-0.468-1.154-1.126-2.191c0.114-0.039,0.229-0.102,0.331-0.191c0.2-0.182,0.299-0.438,0.293-0.758
				c-0.002-0.209,0.066-0.35,0.148-0.441c0.114,0.086,0.257,0.143,0.412,0.143c0.371,0,0.67-0.301,0.67-0.67
				C412.342,761.113,412.043,760.814,411.672,760.814z"/>
			<path style="fill:#007E97;" d="M409.015,770.016c-1.409,0.688-3.728,1.594-6.781,2.02c-1.198,0.166-2.359,0.228-3.428,0.228
				c-1.391,0-2.62-0.103-3.563-0.223c-1.076-0.137-1.918-0.303-2.433-0.418c0.124,0.391,0.274,0.779,0.454,1.158
				c0.003,0.01,0.008,0.02,0.013,0.027c0.022,0.043,0.043,0.09,0.066,0.133c0.021,0.045,0.043,0.088,0.064,0.127
				c0.007,0.012,0.012,0.023,0.018,0.033c0.303,0.57,0.666,1.096,1.08,1.549c1.44,1.576,2.907,1.824,2.921,1.826l0.023,0.004
				l0.022,0.008c0.013,0.004,1.313,0.424,3.291,0.424c1.945,0,3.854-0.393,5.674-1.166c1.348-0.69,2.622-1.736,3.254-2.67
				c0.488-0.723,0.841-1.494,1.05-2.295c0.111-0.426,0.199-1.107,0.147-1.824C410.49,769.223,409.863,769.603,409.015,770.016z"/>
			<path style="fill:#007E97;" d="M393.857,764.123c-0.041,0.059-0.652,0.924-1.135,2.252c-0.362,0.996-0.346,2.443-0.346,2.461
				v0.002c0,0.34,0.018,0.678,0.057,1.012c0,0.008,0,0.012,0.002,0.018c0.004,0.043,0.011,0.084,0.015,0.127
				c0.03,0.23,0.069,0.465,0.119,0.701c0.7,0.178,4.878,1.152,9.548,0.502c2.927-0.406,5.149-1.271,6.499-1.926
				c1.121-0.545,1.842-1.037,2.12-1.238c-0.277-1.029-1.042-2.641-1.743-3.647c-2.005-2.865-4.167-3.602-5.277-3.783
				c-0.424-0.07-0.763-0.109-1.243-0.109c-0.447,0-1.002,0.035-1.743,0.113c-0.743,0.078-1.571,0.273-2.532,0.596
				c-1.348,0.451-2.567,1.16-3.526,2.049l-0.033,0.029C394.496,763.412,394.199,763.688,393.857,764.123z M406.127,763.455
				c0.961,0,1.743,0.781,1.743,1.744c0,0.961-0.782,1.744-1.743,1.744c-0.962,0-1.742-0.783-1.742-1.744
				C404.385,764.236,405.165,763.455,406.127,763.455z M397.886,763.387c1.557,0,2.816,1.262,2.816,2.816
				c0,1.557-1.26,2.815-2.816,2.815c-1.555,0-2.816-1.258-2.816-2.815C395.069,764.648,396.331,763.387,397.886,763.387z"/>
		</g>
	</g>
</g>
<g id="Objects">
	<g>
		<g>
			<path style="fill:none;stroke:#FFFFFF;stroke-width:2;stroke-miterlimit:10;" d="M400.51,577.573v55.818c0,0-182.01,0-218.01,0
				v66h368"/>
			<circle style="fill:#E83E33;stroke:#FFFFFF;stroke-width:1.3391;stroke-miterlimit:10;" cx="586.092" cy="696.621" r="37"/>
			<g>
				<path style="fill:#E83E33;stroke:#FFFFFF;stroke-width:1.3391;stroke-miterlimit:10;" d="M610.563,697.318
					c0,13.682-11.092,24.773-24.774,24.773c-13.682,0-24.773-11.092-24.773-24.773c0-13.682,11.092-24.773,24.773-24.773
					C599.472,672.545,610.563,683.637,610.563,697.318z"/>
				<g>
					<path style="fill:#FFFFFF;" d="M586.092,723.529c-14.72,0-26.694-11.975-26.694-26.693c0-14.721,11.975-26.695,26.694-26.695
						c14.72,0,26.695,11.975,26.695,26.695C612.787,711.555,600.811,723.529,586.092,723.529z M586.092,676.928
						c-10.977,0-19.907,8.932-19.907,19.908s8.93,19.906,19.907,19.906c10.977,0,19.907-8.93,19.907-19.906
						S597.068,676.928,586.092,676.928z"/>
					<rect x="582.698" y="663.713" style="fill:#FFFFFF;" width="6.787" height="31.689"/>
				</g>
			</g>
			<path style="opacity:0.2;fill:#FFFFFF;" d="M568.949,729.296c11.804-13.287,29.551-39.238,37.438-63.719
				c-5.828-3.832-12.799-6.068-20.296-6.068c-20.435,0-37,16.565-37,37C549.092,710.756,557.148,723.113,568.949,729.296z"/>
		</g>
		<text transform="matrix(1 0 0 1 636.6099 721.0582)" style="fill:#FFFFFF; font-family:'Amatic-Bold'; font-size:63.507px;">START!!</text>
	</g>
	<g>
		<g>
			<path style="fill:#80BECB;" d="M192.954,557.377l-1.103-16.831l-7.979,0.523c-1.62-6.389-4.548-12.216-8.483-17.201l5.272-6.01
				l-12.68-11.12l-5.275,6.01c-4.021-2.394-8.428-4.19-13.09-5.276c-1.659-0.386-3.352-0.683-5.071-0.885l-0.524-7.981
				l-16.829,1.104l0.523,7.981c-6.388,1.615-12.218,4.548-17.202,8.48l-6.011-5.269l-11.12,12.682l6.011,5.269
				c-3.249,5.455-5.391,11.616-6.163,18.162l-7.979,0.523l1.104,16.831l7.978-0.523c1.621,6.391,4.552,12.218,8.482,17.203
				l-5.27,6.013l12.68,11.118l5.273-6.011c4.021,2.396,8.428,4.19,13.087,5.275c1.662,0.388,3.356,0.686,5.075,0.887l0.523,7.979
				l16.829-1.104l-0.523-7.981c6.391-1.616,12.218-4.547,17.202-8.481l6.015,5.272l11.118-12.684l-6.011-5.272
				c3.249-5.453,5.391-11.614,6.161-18.162L192.954,557.377z M141.336,586.494c-3.442,0.227-6.801-0.069-9.999-0.815
				c-14.244-3.325-25.263-15.635-26.271-30.988c-1.234-18.799,13.006-35.038,31.805-36.269c3.445-0.227,6.803,0.068,9.998,0.814
				c14.245,3.324,25.264,15.635,26.269,30.99C174.372,569.024,160.135,585.261,141.336,586.494z"/>
			<path style="fill:#0F859E;" d="M216.834,636.826c0.379-3.717,0.092-7.419-0.841-11.033l4.876-2.472l-6.108-12.071l-4.878,2.469
				c-2.357-2.896-5.178-5.315-8.394-7.208l1.701-5.193l-9.439-3.095l-3.415-1.12l-1.703,5.193c-3.69-0.373-7.442-0.088-11.037,0.841
				l-2.47-4.879l-12.073,6.111l2.47,4.878c-2.895,2.361-5.316,5.177-7.208,8.396l-5.195-1.705l-4.216,12.856l5.199,1.702
				c-0.381,3.717-0.1,7.42,0.836,11.034l-4.876,2.468l6.113,12.075l4.877-2.472c2.36,2.898,5.173,5.318,8.391,7.21l-1.7,5.195
				l9.44,3.093l3.415,1.121l1.704-5.192c3.69,0.371,7.441,0.088,11.03-0.842l2.472,4.878l12.07-6.109l-2.469-4.881
				c2.899-2.357,5.319-5.174,7.213-8.394l5.191,1.704l4.215-12.857L216.834,636.826z M195.01,652.514
				c-2.564,1.297-5.307,2.051-8.147,2.237c-2.122,0.139-4.209-0.041-6.207-0.508c-5.983-1.396-11.169-5.364-14.042-11.038
				c-5.259-10.396-1.087-23.132,9.308-28.395c2.568-1.297,5.311-2.051,8.148-2.236c2.122-0.14,4.208,0.039,6.207,0.507
				c5.984,1.396,11.169,5.364,14.041,11.036C209.579,634.516,205.404,647.251,195.01,652.514z"/>
		</g>
		<path style="fill:#D0E2FA;" d="M131.928,642.585c-0.243-1.625-0.412-3.276-0.507-4.908l3.623-0.211
			c0.18,3.091,0.651,6.219,1.384,9.207l-3.526,0.861C132.504,645.915,132.176,644.25,131.928,642.585z M131.765,627.706
			c0.422-3.296,1.157-6.571,2.183-9.736l3.453,1.12c-0.958,2.949-1.643,6.003-2.036,9.08L131.765,627.706z M136.159,656.963
			l3.307-1.497c1.277,2.82,2.828,5.537,4.61,8.078l-2.971,2.084C139.195,662.903,137.53,659.987,136.159,656.963z M137.887,608.803
			c1.585-2.916,3.452-5.705,5.548-8.287l2.819,2.287c-1.957,2.41-3.699,5.012-5.18,7.734L137.887,608.803z M150.406,593.38
			c2.536-2.158,5.282-4.086,8.161-5.733l1.802,3.151c-2.686,1.534-5.245,3.335-7.611,5.349L150.406,593.38z M167.65,583.516
			c3.126-1.082,6.383-1.884,9.682-2.382l0.542,3.587c-3.08,0.467-6.12,1.215-9.037,2.227L167.65,583.516z M187.165,584.175
			l0.121-3.628c3.326,0.113,6.655,0.536,9.896,1.26l-0.789,3.541C193.369,584.674,190.264,584.279,187.165,584.175z
			 M205.249,588.205l1.428-3.335c3.054,1.309,6.003,2.907,8.769,4.757l-2.017,3.015C210.85,590.919,208.096,589.427,205.249,588.205
			z M220.665,598.502l2.534-2.6c2.38,2.321,4.559,4.875,6.471,7.589l-2.967,2.092C224.918,603.05,222.887,600.669,220.665,598.502z
			 M229.815,658.582c1.478-2.727,2.708-5.608,3.656-8.558l3.456,1.113c-1.018,3.162-2.337,6.248-3.921,9.173L229.815,658.582z
			 M231.331,613.653l3.302-1.505c1.378,3.019,2.48,6.189,3.278,9.421l-3.524,0.87C233.642,619.425,232.614,616.469,231.331,613.653z
			 M235.486,640.939c0.387-3.067,0.488-6.196,0.303-9.297l3.623-0.22c0.2,3.327,0.091,6.681-0.324,9.973L235.486,640.939z
			 M136.75,676.485l25.245,10.291l-4.824-26.832L136.75,676.485z"/>
	</g>
	<g>
		<g id="Shape_1_copy">
			<g>
				<path style="fill-rule:evenodd;clip-rule:evenodd;fill:#A1A4A8;" d="M472.012,597.966l-13.117-5.651
					c-5.078-3.385-5.178-8.364-5.178-8.364c-74.68-7.013-106.339-3.435-106.339-3.435c-0.597,7.967-1.891,7.12-1.891,7.12
					c-4.083,7.267-16.604,10.031-16.604,10.031c-4.58,4.504,0.673,5.202,0.673,5.202H471.34
					C476.07,602.371,472.012,597.966,472.012,597.966z"/>
			</g>
		</g>
		<g id="Shape_1">
			<g>
				<path style="fill-rule:evenodd;clip-rule:evenodd;fill:#BDC1C4;" d="M471.639,597.592l-12.744-7.269
					c-5.078-3.386-5.178-8.362-5.178-8.362c-1.692-6.273-4.68-47.694-4.68-47.694h-97.975l-3.685,40.525
					c-0.597,7.965-1.891,10.852-1.891,10.852c-4.083,7.27-16.23,11.65-16.23,11.65c-4.579,2.39,0.3,3.584,0.3,3.584H471.34
					C475.323,599.882,471.639,597.592,471.639,597.592z"/>
			</g>
		</g>
		<g id="Shape_2">
			<g>
				<path style="fill-rule:evenodd;clip-rule:evenodd;fill:#DBDCDD;" d="M636.225,197.131H163.776c-5.5,0-9.957,4.458-9.957,9.956
					v317.714c0,5.5,4.457,9.957,9.957,9.957h472.448c5.498,0,9.956-4.458,9.956-9.957V207.087
					C646.181,201.588,641.723,197.131,636.225,197.131z"/>
			</g>
		</g>
		<g id="Shape_3">
			<g>
				<path style="fill-rule:evenodd;clip-rule:evenodd;fill:#434B53;" d="M400.622,502.554c-5.36,0-9.707,4.347-9.707,9.709
					c0,5.361,4.347,9.708,9.707,9.708c5.361,0,9.708-4.347,9.708-9.708C410.33,506.901,405.983,502.554,400.622,502.554z"/>
			</g>
		</g>
		<g id="Shape_2_copy">
			<g>
				<path style="fill-rule:evenodd;clip-rule:evenodd;" d="M646.181,490.342V207.087c0-5.499-4.458-9.956-9.956-9.956H163.776
					c-5.5,0-9.957,4.458-9.957,9.956v283.255H646.181z"/>
			</g>
		</g>
		<g id="Shape_4">
			<g>
				<rect x="172.736" y="216.032" style="fill-rule:evenodd;clip-rule:evenodd;fill:#0F859E;" width="454.526" height="254.91"/>
			</g>
		</g>
	</g>
	<g>
		<g>
			<path style="fill:#94C9D3;" d="M588.938,365.55c2.929-3.527,4.691-8.057,4.691-12.999c0-11.251-9.121-20.372-20.371-20.372
				c-2.54,0-4.963,0.478-7.205,1.332c-3.722-20.862-22.837-36.752-45.877-36.752c-22.523,0-41.306,15.185-45.613,35.356
				c-7.296-12.461-20.8-20.845-36.284-20.845c-15.891,0-29.714,8.822-36.859,21.832c-8.788-16.197-25.942-27.195-45.666-27.195
				c-28.674,0-51.919,23.245-51.919,51.92c0,0.438,0.021,0.872,0.032,1.308c-7.063-3.714-15.098-5.824-23.631-5.824
				c-28.115,0-50.905,22.79-50.905,50.905c0,1.31,0.065,2.603,0.162,3.887c-5.545-2.49-11.688-3.887-18.159-3.887
				c-24.509,0-44.376,19.867-44.376,44.376c0,8.679,2.501,16.77,6.808,23.608h455.469v-48.605
				C629.234,423.595,637.323,378.815,588.938,365.55z"/>
			<path style="fill:#FFFFFF;" d="M609.282,429.493c-6.262-37.504-25.938-37.071-44.279-35.926c5.569-3.79,7.815-7.984,8.246-12.117
				c1.486-14.274-9.92-23.488-18.735-22.602c-4.609,0.463-8.145,2.493-8.145,2.493c-0.602-4.806-2.473-9.361-5.942-12.979
				c-4.49-4.683-10.577-7.529-16.901-8.751c-11.737-2.27-26.084,0.082-34.394,9.299l-2.685,6.007
				c-5.674-10.766-16.468-18.042-28.86-18.042c-15.305,0-28.178,11.095-31.966,26.162c-3.114-1.782-6.67-2.798-10.451-2.798
				c-11.366,0-20.722,9.142-22.001,20.915c-2.326,0.361-4.7,0.785-7.102,1.275c-6.993-6.358-16.052-10.202-25.957-10.202
				c-22.136,0-40.082,19.165-40.082,42.806c0,1.102,0.052,2.189,0.129,3.269c-4.366-2.094-9.203-3.269-14.298-3.269
				c-19.299,0-34.942,16.706-34.942,37.315c0,7.298,1.968,14.102,5.359,19.852l320.434-0.761
				C596.711,471.439,614.577,461.208,609.282,429.493z"/>
			<path style="fill:#94C9D3;" d="M636.9,296.992c2.881-3.663,4.613-8.27,4.613-13.291c0-11.893-9.643-21.535-21.536-21.535
				c-11.893,0-21.534,9.642-21.534,21.535c0,6.898,3.256,13.023,8.301,16.964c-1.225,1.64-1.957,3.669-1.957,5.871
				c0,5.436,4.406,9.842,9.842,9.842c3.558,0,6.667-1.897,8.396-4.727c1.398,4.923,5.916,8.531,11.287,8.531
				c6.485,0,11.744-5.257,11.744-11.743C646.056,302.845,642.14,298.172,636.9,296.992z"/>
			<path style="fill:#94C9D3;" d="M520.475,260.727c-0.11-7.275-6.033-13.141-13.335-13.141c-7.37,0-13.345,5.975-13.345,13.344
				c0,0.646,0.063,1.275,0.15,1.897c-4.13,1.506-7.083,5.456-7.083,10.107c0,5.947,4.819,10.767,10.767,10.767
				c1.139,0,2.235-0.179,3.265-0.507c2.02,7.763,9.056,13.5,17.449,13.5c9.971,0,18.054-8.082,18.054-18.051
				C536.396,269.396,529.44,261.783,520.475,260.727z"/>
			<path style="fill:#94C9D3;" d="M520.803,223.861c0,5.067-4.106,9.175-9.173,9.175s-9.175-4.107-9.175-9.175
				c0-5.066,4.108-9.172,9.175-9.172S520.803,218.795,520.803,223.861z"/>
			<path style="fill:#94C9D3;" d="M497.905,235.222c0,2.988-2.424,5.411-5.412,5.411c-2.986,0-5.41-2.422-5.41-5.411
				c0-2.988,2.424-5.409,5.41-5.409C495.481,229.813,497.905,232.233,497.905,235.222z"/>
			<path style="fill:#80BECB;" d="M587.523,436.169c-0.958,0-1.892,0.096-2.809,0.239c-0.998-8.128-5.547-20.056-22.939-24.825
				c1.664-2.004,2.667-4.579,2.667-7.388c0-6.394-5.185-11.578-11.578-11.578c-1.443,0-2.822,0.272-4.096,0.757
				c-2.116-11.857-12.981-20.889-26.073-20.889c-12.802,0-23.479,8.63-25.928,20.096c-4.145-7.083-11.821-11.848-20.622-11.848
				c-9.031,0-16.888,5.014-20.949,12.408c-4.995-9.206-14.744-15.456-25.954-15.456c-16.298,0-29.509,13.212-29.509,29.509
				c0,0.249,0.012,0.495,0.018,0.743c-4.014-2.111-8.58-3.31-13.431-3.31c-15.979,0-28.933,12.953-28.933,28.933
				c0,0.744,0.037,1.479,0.092,2.209c-3.151-1.415-6.643-2.209-10.321-2.209c-13.93,0-25.221,11.291-25.221,25.22
				c0,4.934,1.421,9.533,3.869,13.419h258.841c0.938,0.15,1.895,0.249,2.876,0.249c10.019,0,18.141-8.122,18.141-18.14
				C605.664,444.291,597.542,436.169,587.523,436.169z"/>
			<path style="fill:#98D0D8;" d="M488.012,390.944c-2.081,0-4.068,0.378-5.923,1.037c-2.087-15.649-15.479-27.727-31.698-27.727
				c-17.669,0-31.992,14.323-31.992,31.99c0,4.881,1.098,9.503,3.051,13.641c-8.493,2.967-14.597,11.028-14.597,20.534
				c0,12.021,9.746,21.769,21.769,21.769c12.023,0,21.77-9.748,21.77-21.769c0-0.738-0.039-1.467-0.11-2.187
				c0.037,0,0.074,0.003,0.11,0.003c8.996,0,17.118-3.719,22.932-9.696c3.181,4.716,8.572,7.817,14.689,7.817
				c9.779,0,17.706-7.927,17.706-17.706C505.718,398.872,497.791,390.944,488.012,390.944z"/>
		</g>
		<g>
			<path style="fill:#FAB600;" d="M422.66,274.464l-32.888-0.221c-0.035,0.053-0.071,0.105-0.105,0.159
				c-33.395,39.707,11.491,81.294,11.491,81.294l6.057-5.717l-0.1,14.917c0,0,46.887-46.479,15.544-90.272
				C422.658,274.624,422.659,274.568,422.66,274.464z"/>
			<path style="fill:#FFD047;" d="M416.871,274.585l-21.729-0.146c-0.023,0.041-0.046,0.08-0.07,0.121
				c-22.092,30.336,7.536,62.052,7.536,62.052l4.008-4.369l-0.078,11.39c0,0,31.013-35.514,10.334-68.926
				C416.871,274.706,416.871,274.664,416.871,274.585z"/>
			<g>
				<g>
					
						<linearGradient id="SVGID_1_" gradientUnits="userSpaceOnUse" x1="483.2701" y1="479.7432" x2="534.8994" y2="479.7432" gradientTransform="matrix(1 0.0067 -0.0067 1 -54.168 -223.455)">
						<stop  offset="0" style="stop-color:#BC6119"/>
						<stop  offset="0.1582" style="stop-color:#BE6520"/>
						<stop  offset="0.5549" style="stop-color:#C16D2A"/>
						<stop  offset="1" style="stop-color:#C26F2E"/>
					</linearGradient>
					<path style="fill:url(#SVGID_1_);" d="M445.856,214.979c-19.581,11.915-19.921,37.438-19.921,37.438
						c36.57,2.284,49.869,52.123,49.869,52.123s0.371-1.613,0.943-4.321C478.976,264.896,476.432,236.86,445.856,214.979z"/>
					
						<linearGradient id="SVGID_00000172406943127705922820000013236395318149482120_" gradientUnits="userSpaceOnUse" x1="516.3914" y1="478.4565" x2="539.8607" y2="470.9185" gradientTransform="matrix(1 0.0067 -0.0067 1 -54.168 -223.455)">
						<stop  offset="0" style="stop-color:#B1551C"/>
						<stop  offset="0.119" style="stop-color:#B25921"/>
						<stop  offset="0.5341" style="stop-color:#B6612B"/>
						<stop  offset="1" style="stop-color:#B7642F"/>
					</linearGradient>
					<path style="fill:url(#SVGID_00000172406943127705922820000013236395318149482120_);" d="M480.826,245.83
						c-6.826-17.167-27.567-32.885-27.567-32.885c-2.549,0.915-4.858,2.014-6.948,3.249c0.206,0.001,0.418,0.003,0.624,0.004
						c-0.206-0.001-0.418-0.003-0.624-0.004c-0.161,0.092-0.308,0.194-0.466,0.289c30.578,21.881,33.131,48.412,30.903,83.737
						C479.421,287.531,486.454,259.981,480.826,245.83z"/>
				</g>
				<g>
					
						<linearGradient id="SVGID_00000083069515437075905300000017577387313261363627_" gradientUnits="userSpaceOnUse" x1="2296.8215" y1="479.1983" x2="2348.4546" y2="479.1983" gradientTransform="matrix(-1 -0.0067 -0.0067 1 2687.1624 -204.5461)">
						<stop  offset="0" style="stop-color:#BC6119"/>
						<stop  offset="0.1582" style="stop-color:#BE6520"/>
						<stop  offset="0.5549" style="stop-color:#C16D2A"/>
						<stop  offset="1" style="stop-color:#C26F2E"/>
					</linearGradient>
					<path style="fill:url(#SVGID_00000083069515437075905300000017577387313261363627_);" d="M367.762,214.454
						c19.418,12.177,19.416,37.704,19.416,37.704c-36.599,1.79-50.566,51.447-50.566,51.447s-0.351-1.618-0.887-4.333
						C333.973,263.919,336.893,235.921,367.762,214.454z"/>
					
						<linearGradient id="SVGID_00000041988364157785474530000001047623740585061787_" gradientUnits="userSpaceOnUse" x1="2359.6614" y1="483.107" x2="2306.8191" y2="466.1348" gradientTransform="matrix(-1 -0.0067 -0.0067 1 2687.1624 -204.5461)">
						<stop  offset="0" style="stop-color:#B1551C"/>
						<stop  offset="0.119" style="stop-color:#B25921"/>
						<stop  offset="0.5341" style="stop-color:#B6612B"/>
						<stop  offset="1" style="stop-color:#B7642F"/>
					</linearGradient>
					<path style="fill:url(#SVGID_00000041988364157785474530000001047623740585061787_);" d="M332.38,244.831
						c7.059-17.073,29.258-33.926,29.258-33.926c2.536,0.95,3.579,3.494,5.655,4.757c-0.207-0.001-0.417-0.003-0.624-0.004
						c0.207,0.001,0.417,0.003,0.624,0.004c0.158,0.095,0.305,0.198,0.458,0.295c-30.868,21.467-33.778,47.961-32.026,83.314
						C333.225,286.547,326.564,258.905,332.38,244.831z"/>
				</g>
				<g>
					<polygon style="fill:#165975;" points="424.127,274.605 388.367,274.249 388.481,257.244 424.241,257.601 					"/>
					
						<rect x="389.135" y="263.281" transform="matrix(0.0069 -1 1 0.0069 128.9668 661.712)" style="opacity:0.3;fill:#FFFFFF;" width="17.005" height="5.287"/>
				</g>
				
					<linearGradient id="SVGID_00000161632958040609478660000003872961747691324304_" gradientUnits="userSpaceOnUse" x1="421.3054" y1="313.813" x2="471.423" y2="313.813" gradientTransform="matrix(1 0.0067 -0.0067 1 -54.1683 -223.4556)">
					<stop  offset="0" style="stop-color:#BC6119"/>
					<stop  offset="0.1582" style="stop-color:#BE6520"/>
					<stop  offset="0.5549" style="stop-color:#C16D2A"/>
					<stop  offset="1" style="stop-color:#C26F2E"/>
				</linearGradient>
				<path style="fill:url(#SVGID_00000161632958040609478660000003872961747691324304_);" d="M401.549,64.414
					c-7.811,9.554-20.427,26.453-30.152,45.861c8.638,9.397,23.878,11.872,37.5,12.208c-1.314-14.027-2.986-28.102-4.421-42.333
					C403.702,75.314,403.017,69.262,401.549,64.414z"/>
				
					<linearGradient id="SVGID_00000183932259937537735050000004291374908698657724_" gradientUnits="userSpaceOnUse" x1="448.676" y1="316.404" x2="497.6691" y2="300.6682" gradientTransform="matrix(1 0.0067 -0.0067 1 -54.1683 -223.4556)">
					<stop  offset="0" style="stop-color:#B1551C"/>
					<stop  offset="0.119" style="stop-color:#B25921"/>
					<stop  offset="0.5341" style="stop-color:#B6612B"/>
					<stop  offset="1" style="stop-color:#B7642F"/>
				</linearGradient>
				<path style="fill:url(#SVGID_00000183932259937537735050000004291374908698657724_);" d="M444.815,111.941
					c-10.078-23.6-23.733-43.74-35.604-56.285c0,0-3.378,3.512-8.441,9.705c1.468,4.847,1.715,9.945,2.488,14.782
					c1.435,14.231,3.107,28.305,4.422,42.332c0.398,0.011,0.796,0.03,1.197,0.032C422.212,122.598,434.602,118.684,444.815,111.941z
					"/>
				<path style="fill:#FFFFFF;" d="M408.877,122.508c-13.622-0.336-28.842-3.115-37.481-12.232
					c-5.221,10.417-9.224,21.828-12.274,33.771c-3.322,13.019-4.18,26.616-3.382,40.37c2.824,48.674,28.121,69.783,34.069,72.411
					c8.92-18.587,16.878-37.182,19.477-58.057C412.579,173.413,411.226,147.545,408.877,122.508z"/>
				<path style="fill:#E2E2E2;" d="M456.414,148.577c-2.588-12.721-6.668-25.09-11.599-36.635
					c-10.214,6.742-22.604,10.657-35.938,10.566c-0.401-0.002-0.799-0.021-1.197-0.032c2.349,25.037,3.564,49.926,0.268,75.284
					c-2.598,20.874-9.219,40.48-18.139,59.067c0.915,0.405,1.439,0.551,1.439,0.551l32.992,0.222c0,0,30.204-13.708,34.78-72.98
					C459.952,172.567,458.82,160.421,456.414,148.577z"/>
				<g>
					<path style="fill:#165975;stroke:#165975;stroke-width:2;stroke-miterlimit:10;" d="M432.71,158.792
						c-0.089,13.233-10.888,23.89-24.121,23.801c-13.236-0.089-23.891-10.89-23.801-24.123c0.089-13.234,10.887-23.889,24.123-23.8
						C422.145,134.758,432.8,145.559,432.71,158.792z"/>
					
						<linearGradient id="SVGID_00000165947330317365033310000011187616844144750499_" gradientUnits="userSpaceOnUse" x1="442.6645" y1="379.2683" x2="488.0795" y2="379.2683" gradientTransform="matrix(1 0.0067 -0.0067 1 -54.1683 -223.4556)">
						<stop  offset="0" style="stop-color:#BC6119"/>
						<stop  offset="0.1582" style="stop-color:#BE6520"/>
						<stop  offset="0.5549" style="stop-color:#C16D2A"/>
						<stop  offset="1" style="stop-color:#C26F2E"/>
					</linearGradient>
					<path style="fill:url(#SVGID_00000165947330317365033310000011187616844144750499_);" d="M431.37,159.083
						c-0.085,12.54-10.318,22.639-22.859,22.555c-12.539-0.084-22.64-10.32-22.556-22.86c0.085-12.542,10.322-22.64,22.861-22.555
						C421.357,136.308,431.454,146.542,431.37,159.083z"/>
					<g>
						<path style="opacity:0.4;fill:#FFFFFF;" d="M426.335,142.39c-8.008,12.787-22.768,22.617-34.539,33.166
							c-4.367-4.375-7.053-10.419-7.008-17.085c0.089-13.234,10.887-23.889,24.123-23.8
							C415.813,134.715,421.994,137.692,426.335,142.39z"/>
					</g>
					<g>
						<path style="fill:#47A2B4;" d="M408.774,142.655c-8.99-0.06-16.326,7.178-16.386,16.166c-0.017,2.306,0.455,4.5,1.309,6.493
							c6.389-7.231,12.362-14.885,18.639-22.23C411.188,142.819,410,142.663,408.774,142.655z"/>
						<path style="fill:#0E7A90;" d="M419.156,146.492c-3.271,7.599-17.344,13.652-23.048,22.789c0.307,0.37,0.624,0.73,0.959,1.072
							c7.871-7.225,15.291-14.964,23.759-22.206C420.308,147.559,419.756,146.999,419.156,146.492z"/>
						<path style="fill:#0E7A90;" d="M422.806,150.898c-0.357-0.624-0.754-1.22-1.186-1.79
							c-6.671,8.405-16.643,13.942-23.106,22.528c0.242,0.195,0.489,0.385,0.743,0.565
							C407.096,165.262,415.278,158.272,422.806,150.898z"/>
						<g>
							<path style="fill:#165975;" d="M423.521,152.314c-0.218-0.486-0.455-0.956-0.716-1.415
								c-7.527,7.374-15.71,14.364-23.549,21.302c0.403,0.288,0.822,0.553,1.253,0.803
								C408.625,167.128,416.878,160.385,423.521,152.314z"/>
							<path style="fill:#47A2B4;" d="M400.51,173.003c2.369,1.376,5.111,2.183,8.044,2.203c8.988,0.061,16.321-7.178,16.383-16.165
								c0.016-2.399-0.498-4.67-1.415-6.727C416.878,160.385,408.625,167.128,400.51,173.003z"/>
							<path style="fill:#165975;" d="M419.156,146.492c-1.938-1.634-4.267-2.818-6.82-3.408
								c-6.276,7.346-12.25,14.999-18.639,22.23c0.614,1.441,1.429,2.775,2.411,3.967
								C401.813,160.143,415.886,154.091,419.156,146.492z"/>
							<path style="fill:#165975;" d="M421.62,149.108c-0.252-0.331-0.517-0.652-0.794-0.961
								c-8.468,7.243-15.888,14.982-23.759,22.206c0.455,0.457,0.942,0.879,1.446,1.283
								C404.977,163.05,414.949,157.513,421.62,149.108z"/>
						</g>
					</g>
				</g>
				<g>
					<path style="fill:#165975;stroke:#165975;stroke-width:2;stroke-miterlimit:10;" d="M432.029,216.536
						c-0.089,13.232-10.889,23.89-24.122,23.8c-13.235-0.089-23.891-10.89-23.801-24.122c0.09-13.234,10.888-23.89,24.124-23.801
						C421.463,192.501,432.118,203.302,432.029,216.536z"/>
					
						<linearGradient id="SVGID_00000146483051577377805660000009563479242403487638_" gradientUnits="userSpaceOnUse" x1="442.3707" y1="437.0134" x2="487.7848" y2="437.0134" gradientTransform="matrix(1 0.0067 -0.0067 1 -54.1683 -223.4556)">
						<stop  offset="0" style="stop-color:#BC6119"/>
						<stop  offset="0.1582" style="stop-color:#BE6520"/>
						<stop  offset="0.5549" style="stop-color:#C16D2A"/>
						<stop  offset="1" style="stop-color:#C26F2E"/>
					</linearGradient>
					<path style="fill:url(#SVGID_00000146483051577377805660000009563479242403487638_);" d="M430.689,216.827
						c-0.084,12.54-10.318,22.639-22.858,22.555c-12.54-0.085-22.64-10.321-22.556-22.861c0.084-12.541,10.321-22.639,22.861-22.555
						C420.676,194.051,430.772,204.286,430.689,216.827z"/>
					<g>
						<path style="opacity:0.4;fill:#FFFFFF;" d="M425.653,200.133c-8.008,12.787-22.768,22.617-34.539,33.165
							c-4.366-4.373-7.053-10.418-7.008-17.084c0.09-13.234,10.888-23.89,24.124-23.801
							C415.131,192.458,421.314,195.435,425.653,200.133z"/>
					</g>
					<g>
						<path style="fill:#47A2B4;" d="M408.093,200.398c-8.989-0.06-16.326,7.177-16.386,16.167c-0.016,2.306,0.455,4.5,1.309,6.493
							c6.389-7.232,12.362-14.884,18.64-22.231C410.506,200.562,409.319,200.406,408.093,200.398z"/>
						<path style="fill:#0E7A90;" d="M418.476,204.235c-3.27,7.599-17.345,13.651-23.049,22.789c0.307,0.371,0.624,0.73,0.96,1.072
							c7.87-7.224,15.291-14.963,23.759-22.206C419.626,205.302,419.075,204.743,418.476,204.235z"/>
						<path style="fill:#0E7A90;" d="M422.124,208.642c-0.356-0.625-0.753-1.22-1.185-1.791
							c-6.671,8.405-16.644,13.942-23.107,22.528c0.242,0.194,0.49,0.384,0.744,0.564
							C406.414,223.005,414.597,216.016,422.124,208.642z"/>
						<g>
							<path style="fill:#165975;" d="M422.84,210.057c-0.218-0.486-0.454-0.956-0.716-1.416
								c-7.527,7.375-15.71,14.364-23.548,21.302c0.403,0.288,0.822,0.554,1.252,0.803
								C407.944,224.871,416.196,218.127,422.84,210.057z"/>
							<path style="fill:#47A2B4;" d="M399.828,230.747c2.369,1.376,5.112,2.183,8.045,2.203
								c8.988,0.061,16.321-7.178,16.382-16.165c0.016-2.399-0.498-4.671-1.415-6.727
								C416.196,218.127,407.944,224.871,399.828,230.747z"/>
							<path style="fill:#165975;" d="M418.476,204.235c-1.938-1.635-4.268-2.818-6.82-3.408
								c-6.277,7.347-12.251,14.999-18.64,22.231c0.614,1.441,1.429,2.775,2.411,3.966
								C401.131,217.886,415.205,211.833,418.476,204.235z"/>
							<path style="fill:#165975;" d="M420.939,206.851c-0.252-0.331-0.517-0.652-0.793-0.961
								c-8.468,7.243-15.889,14.982-23.759,22.206c0.454,0.458,0.942,0.88,1.445,1.284
								C404.295,220.793,414.268,215.256,420.939,206.851z"/>
						</g>
					</g>
				</g>
			</g>
		</g>
	</g>
	<g>
		<g>
			<g>
				<path style="fill-rule:evenodd;clip-rule:evenodd;fill:#D36259;" d="M571.409,614.587l-1.563,7.408l6.522-3.844l18.679-25.995
					c0.534-0.743,0.363-1.79-0.382-2.324l-2.254-1.619c-0.743-0.535-1.789-0.364-2.323,0.38L571.409,614.587z"/>
				<path style="fill-rule:evenodd;clip-rule:evenodd;fill:#CE4F44;" d="M571.409,614.587l-1.563,7.408l4.203-5.85l19.49-27.123
					l-1.128-0.81c-0.743-0.535-1.789-0.364-2.323,0.38L571.409,614.587z"/>
				<path style="fill-rule:evenodd;clip-rule:evenodd;fill:#D6F3F7;" d="M571.409,614.587l-1.563,7.408l6.522-3.844l17.246-24.004
					c-1.531-1.551-3.182-2.718-4.958-3.563L571.409,614.587z"/>
				<path style="fill-rule:evenodd;clip-rule:evenodd;fill:#B9EBF2;" d="M571.409,614.587l-1.563,7.408l4.203-5.85l17.242-23.997
					c-0.846-0.611-1.724-1.13-2.635-1.564L571.409,614.587z"/>
				<path style="fill-rule:evenodd;clip-rule:evenodd;fill:#D8AD43;" d="M571.409,614.587l-1.563,7.408l6.522-3.844l16.111-22.421
					c-1.529-1.58-3.181-2.746-4.96-3.563L571.409,614.587z"/>
				<path style="fill-rule:evenodd;clip-rule:evenodd;fill:#EAC261;" d="M571.545,614.411l-1.551,7.351l4.17-5.805l15.991-22.254
					c-0.843-0.609-1.716-1.118-2.625-1.536L571.545,614.411z"/>
				<path style="fill-rule:evenodd;clip-rule:evenodd;fill:#D6F3F7;" d="M571.409,614.587l-1.563,7.408l6.522-3.844
					c-0.685-0.713-1.459-1.389-2.319-2.006C573.19,615.527,572.302,615.008,571.409,614.587z"/>
				<path style="fill-rule:evenodd;clip-rule:evenodd;fill:#B9EBF2;" d="M571.409,614.587l-1.563,7.408l4.203-5.85
					C573.19,615.527,572.302,615.008,571.409,614.587z"/>
				<path style="fill-rule:evenodd;clip-rule:evenodd;fill:#DD9C00;" d="M570.364,619.547l-0.518,2.448l2.154-1.271
					c-0.226-0.234-0.482-0.457-0.765-0.662C570.951,619.858,570.657,619.685,570.364,619.547z"/>
			</g>
		</g>
		<g>
			<g>
				<path style="fill-rule:evenodd;clip-rule:evenodd;fill:#D36259;" d="M606.574,600.224l-1.562,7.408l6.521-3.846l18.679-25.994
					c0.535-0.743,0.363-1.79-0.382-2.323l-2.253-1.62c-0.744-0.534-1.79-0.363-2.324,0.381L606.574,600.224z"/>
				<path style="fill-rule:evenodd;clip-rule:evenodd;fill:#CE4F44;" d="M606.574,600.224l-1.562,7.408l4.202-5.85l19.49-27.123
					l-1.127-0.811c-0.744-0.534-1.79-0.363-2.324,0.381L606.574,600.224z"/>
				<path style="fill-rule:evenodd;clip-rule:evenodd;fill:#D6F3F7;" d="M606.574,600.224l-1.562,7.408l6.521-3.846l17.246-24.003
					c-1.531-1.551-3.182-2.717-4.957-3.563L606.574,600.224z"/>
				<path style="fill-rule:evenodd;clip-rule:evenodd;fill:#B9EBF2;" d="M606.574,600.224l-1.562,7.408l4.202-5.85l17.243-23.997
					c-0.847-0.612-1.725-1.13-2.635-1.564L606.574,600.224z"/>
				<path style="fill-rule:evenodd;clip-rule:evenodd;fill:#D8AD43;" d="M606.574,600.224l-1.562,7.408l6.521-3.846l16.111-22.42
					c-1.528-1.58-3.179-2.745-4.959-3.564L606.574,600.224z"/>
				<path style="fill-rule:evenodd;clip-rule:evenodd;fill:#EAC261;" d="M606.71,600.048l-1.55,7.351l4.17-5.806l15.991-22.253
					c-0.843-0.609-1.717-1.119-2.626-1.537L606.71,600.048z"/>
				<path style="fill-rule:evenodd;clip-rule:evenodd;fill:#D6F3F7;" d="M606.574,600.224l-1.562,7.408l6.521-3.846
					c-0.684-0.711-1.458-1.387-2.319-2.004C608.354,601.162,607.467,600.644,606.574,600.224z"/>
				<path style="fill-rule:evenodd;clip-rule:evenodd;fill:#B9EBF2;" d="M606.574,600.224l-1.562,7.408l4.202-5.85
					C608.356,601.162,607.467,600.644,606.574,600.224z"/>
				<path style="fill-rule:evenodd;clip-rule:evenodd;fill:#DD9C00;" d="M605.529,605.184l-0.517,2.448l2.154-1.271
					c-0.227-0.234-0.482-0.459-0.766-0.662C606.117,605.495,605.824,605.322,605.529,605.184z"/>
			</g>
		</g>
		<g>
			<g>
				<path style="fill-rule:evenodd;clip-rule:evenodd;fill:#D36259;" d="M614.128,624.226l-1.563,7.408l6.522-3.846l18.679-25.994
					c0.535-0.743,0.363-1.79-0.381-2.323l-2.254-1.621c-0.743-0.534-1.79-0.363-2.323,0.383L614.128,624.226z"/>
				<path style="fill-rule:evenodd;clip-rule:evenodd;fill:#CE4F44;" d="M614.128,624.226l-1.563,7.408l4.203-5.85l19.489-27.124
					l-1.127-0.811c-0.743-0.534-1.79-0.363-2.323,0.383L614.128,624.226z"/>
				<path style="fill-rule:evenodd;clip-rule:evenodd;fill:#D6F3F7;" d="M614.128,624.226l-1.563,7.408l6.522-3.846l17.246-24.003
					c-1.532-1.552-3.182-2.717-4.957-3.562L614.128,624.226z"/>
				<path style="fill-rule:evenodd;clip-rule:evenodd;fill:#B9EBF2;" d="M614.128,624.226l-1.563,7.408l4.203-5.85l17.242-23.997
					c-0.846-0.612-1.725-1.131-2.635-1.564L614.128,624.226z"/>
				<path style="fill-rule:evenodd;clip-rule:evenodd;fill:#D8AD43;" d="M614.128,624.226l-1.563,7.408l6.522-3.846l16.112-22.42
					c-1.529-1.579-3.181-2.745-4.96-3.563L614.128,624.226z"/>
				<path style="fill-rule:evenodd;clip-rule:evenodd;fill:#EAC261;" d="M614.264,624.05l-1.551,7.351l4.17-5.806l15.991-22.254
					c-0.843-0.61-1.716-1.119-2.625-1.535L614.264,624.05z"/>
				<path style="fill-rule:evenodd;clip-rule:evenodd;fill:#D6F3F7;" d="M614.128,624.226l-1.563,7.408l6.522-3.846
					c-0.684-0.711-1.458-1.387-2.318-2.004C615.908,625.164,615.021,624.646,614.128,624.226z"/>
				<path style="fill-rule:evenodd;clip-rule:evenodd;fill:#B9EBF2;" d="M614.128,624.226l-1.563,7.408l4.203-5.85
					C615.909,625.164,615.021,624.646,614.128,624.226z"/>
				<path style="fill-rule:evenodd;clip-rule:evenodd;fill:#DD9C00;" d="M613.082,629.184l-0.517,2.45l2.154-1.271
					c-0.227-0.234-0.481-0.459-0.765-0.662C613.67,629.497,613.376,629.324,613.082,629.184z"/>
			</g>
		</g>
		<g>
			<g>
				<path style="fill-rule:evenodd;clip-rule:evenodd;fill:#D36259;" d="M651.048,602.355l-1.564,7.41l6.523-3.846l18.678-25.995
					c0.535-0.743,0.364-1.789-0.382-2.324l-2.253-1.619c-0.742-0.535-1.79-0.364-2.324,0.382L651.048,602.355z"/>
				<path style="fill-rule:evenodd;clip-rule:evenodd;fill:#CE4F44;" d="M651.048,602.355l-1.564,7.41l4.203-5.851l19.49-27.124
					l-1.127-0.81c-0.742-0.535-1.79-0.364-2.324,0.382L651.048,602.355z"/>
				<path style="fill-rule:evenodd;clip-rule:evenodd;fill:#D6F3F7;" d="M651.048,602.355l-1.564,7.41l6.523-3.846l17.246-24.004
					c-1.532-1.551-3.183-2.717-4.958-3.562L651.048,602.355z"/>
				<path style="fill-rule:evenodd;clip-rule:evenodd;fill:#B9EBF2;" d="M651.048,602.355l-1.564,7.41l4.203-5.851l17.244-23.997
					c-0.848-0.612-1.725-1.131-2.636-1.563L651.048,602.355z"/>
				<path style="fill-rule:evenodd;clip-rule:evenodd;fill:#D8AD43;" d="M651.048,602.355l-1.564,7.41l6.523-3.846l16.11-22.421
					c-1.528-1.579-3.179-2.745-4.96-3.563L651.048,602.355z"/>
				<path style="fill-rule:evenodd;clip-rule:evenodd;fill:#EAC261;" d="M651.183,602.182l-1.55,7.349l4.171-5.805l15.99-22.253
					c-0.842-0.61-1.717-1.119-2.626-1.536L651.183,602.182z"/>
				<path style="fill-rule:evenodd;clip-rule:evenodd;fill:#D6F3F7;" d="M651.048,602.355l-1.564,7.41l6.523-3.846
					c-0.684-0.712-1.458-1.388-2.32-2.005C652.827,603.296,651.94,602.776,651.048,602.355z"/>
				<path style="fill-rule:evenodd;clip-rule:evenodd;fill:#B9EBF2;" d="M651.048,602.355l-1.564,7.41l4.203-5.851
					C652.829,603.296,651.94,602.776,651.048,602.355z"/>
				<path style="fill-rule:evenodd;clip-rule:evenodd;fill:#DD9C00;" d="M650.002,607.315l-0.518,2.45l2.155-1.271
					c-0.227-0.235-0.481-0.459-0.766-0.663C650.59,607.629,650.296,607.454,650.002,607.315z"/>
			</g>
		</g>
		<g id="nube_4_">
			<g>
				
					<linearGradient id="SVGID_00000110456803522393566130000007106884972679781548_" gradientUnits="userSpaceOnUse" x1="626.9553" y1="601.5732" x2="626.9553" y2="512.1976">
					<stop  offset="0.4031" style="stop-color:#B0DEF1;stop-opacity:0.1"/>
					<stop  offset="0.4178" style="stop-color:#ABDDF1;stop-opacity:0.1074"/>
					<stop  offset="0.7038" style="stop-color:#50C3ED;stop-opacity:0.2511"/>
					<stop  offset="0.9041" style="stop-color:#16B3EA;stop-opacity:0.3518"/>
					<stop  offset="1" style="stop-color:#00ADE9;stop-opacity:0.4"/>
				</linearGradient>
				
					<path style="opacity:0.9;fill-rule:evenodd;clip-rule:evenodd;fill:url(#SVGID_00000110456803522393566130000007106884972679781548_);" d="
					M602.393,601.572c-7.963-0.01-15.927-0.043-23.89-0.066c-4.576-0.015-21.85-20.373-23.2-24.957
					c-0.571-1.938-0.681-3.97-0.627-5.989c0.122-4.71,1.322-9.086,3.754-13.078c1.991-3.269,4.731-5.672,7.852-7.65
					c3.501-2.219,7.34-3.497,11.333-4.248c2.859-0.539,5.746-0.919,8.627-1.331c0.433-0.062,0.538-0.259,0.61-0.646
					c1.704-9.153,5.907-16.81,12.575-22.952c4.088-3.763,8.778-6.359,14.107-7.61c3.387-0.794,6.826-0.957,10.278-0.785
					c4.084,0.205,8.051,1.034,11.812,2.749c5.386,2.454,9.678,6.323,13.048,11.347c0.685,1.019,1.354,2.049,2.011,3.088
					c0.176,0.28,0.346,0.36,0.677,0.315c2.771-0.378,5.555-0.629,8.352-0.414c3.372,0.261,6.534,1.152,9.223,3.458
					c3.14,2.695,4.643,6.208,4.837,10.415c0.133,2.904-0.172,5.774-0.526,8.642c-0.051,0.421,0.086,0.607,0.375,0.802
					c1.305,0.879,2.766,1.327,4.259,1.639c2.947,0.615,5.626,1.819,7.909,3.89c3.035,2.756,4.706,6.308,5.335,10.426
					c0.352,2.301,19.221,11.725-1.777,32.891C677.813,601.516,613.052,601.582,602.393,601.572z"/>
				<path style="fill-rule:evenodd;clip-rule:evenodd;fill:#FFFFFF;" d="M617.197,584.46c-10.307,0-20.612,0.009-30.92-0.003
					c-7.7-0.009-15.399-0.04-23.102-0.063c-4.425-0.015-8.583-3.176-9.888-7.608c-0.553-1.875-0.657-3.84-0.607-5.793
					c0.119-4.554,1.277-8.786,3.63-12.646c1.926-3.161,4.577-5.485,7.593-7.398c3.387-2.146,7.099-3.382,10.96-4.109
					c2.765-0.521,5.557-0.887,8.34-1.286c0.42-0.06,0.522-0.251,0.593-0.625c1.646-8.851,5.712-16.256,12.16-22.194
					c3.951-3.64,8.488-6.149,13.64-7.359c3.274-0.768,6.6-0.926,9.939-0.758c3.948,0.197,7.785,0.999,11.421,2.657
					c5.209,2.374,9.36,6.115,12.618,10.972c0.66,0.986,1.309,1.982,1.943,2.987c0.172,0.271,0.335,0.348,0.655,0.304
					c2.681-0.365,5.371-0.609,8.076-0.4c3.261,0.253,6.318,1.115,8.916,3.344c3.039,2.607,4.493,6.004,4.679,10.072
					c0.129,2.808-0.165,5.583-0.508,8.356c-0.049,0.407,0.081,0.587,0.36,0.776c1.262,0.851,2.675,1.284,4.119,1.584
					c2.85,0.596,5.44,1.759,7.648,3.762c2.935,2.665,4.551,6.1,5.16,10.082c0.34,2.226,0.244,4.438-0.189,6.651
					c-0.649,3.317-2.61,5.477-5.415,6.881c-2.734,1.369-5.668,1.748-8.661,1.749c-11.148,0.009-22.299,0.014-33.447,0.019
					c-6.572,0.001-13.144,0-19.713,0C617.197,584.428,617.197,584.443,617.197,584.46z"/>
			</g>
		</g>
		<g>
			<path style="fill:#0F859E;" d="M737.332,483.946h-18.915v24.409c0,3.554-2.893,6.445-6.448,6.445h-29.13v8.173
				c0,2.034,1.649,3.682,3.686,3.682h28.616l11.957,9.989c1.561,1.302,2.4,0.766,1.876-1.197l-2.334-8.732
				c-0.01-0.02-0.021-0.038-0.024-0.059h10.717c2.033,0,3.683-1.647,3.683-3.682v-35.346
				C741.014,485.595,739.365,483.946,737.332,483.946z"/>
			<path style="fill:#0F859E;" d="M661.16,512.036h5.629c-0.006,0.021-0.016,0.038-0.021,0.06l-2.337,8.731
				c-0.33,1.238-0.121,1.909,0.471,1.909c0.349,0,0.826-0.23,1.404-0.712l11.958-9.988h4.58h29.127c2.032,0,3.68-1.648,3.68-3.682
				v-24.408V473.01c0-2.034-1.648-3.684-3.68-3.684h-50.81c-2.032,0-3.682,1.65-3.682,3.684v35.345
				C657.479,510.388,659.128,512.036,661.16,512.036z"/>
		</g>
	</g>
	<g>
		<g>
			<path style="fill:#80BECB;" d="M746.654,188.188l-1.006-15.355l-7.279,0.477c-1.477-5.829-4.149-11.145-7.739-15.692l4.81-5.483
				l-11.568-10.145l-4.813,5.483c-3.668-2.184-7.688-3.823-11.942-4.813c-1.514-0.353-3.059-0.623-4.626-0.807l-0.479-7.281
				l-15.354,1.007l0.477,7.281c-5.828,1.474-11.146,4.15-15.693,7.737l-5.483-4.807l-10.145,11.569l5.483,4.808
				c-2.964,4.977-4.918,10.597-5.622,16.569l-7.279,0.478l1.007,15.355l7.278-0.478c1.478,5.831,4.152,11.147,7.738,15.694
				l-4.808,5.485l11.568,10.144l4.811-5.483c3.668,2.185,7.688,3.822,11.939,4.813c1.516,0.353,3.062,0.624,4.63,0.809l0.478,7.28
				l15.354-1.007l-0.478-7.281c5.83-1.475,11.146-4.149,15.693-7.737l5.487,4.809l10.144-11.571l-5.484-4.81
				c2.964-4.975,4.918-10.596,5.621-16.569L746.654,188.188z M699.563,214.753c-3.141,0.206-6.205-0.064-9.122-0.744
				c-12.995-3.033-23.048-14.264-23.967-28.271c-1.126-17.151,11.865-31.965,29.016-33.089c3.143-0.207,6.206,0.063,9.121,0.743
				c12.996,3.033,23.049,14.264,23.966,28.272C729.701,198.814,716.713,213.628,699.563,214.753z"/>
			<path style="fill:#0F859E;" d="M768.957,260.997c0.309-3.022,0.075-6.029-0.684-8.968l3.963-2.009l-4.964-9.81l-3.965,2.007
				c-1.915-2.353-4.208-4.32-6.822-5.858l1.383-4.221l-7.672-2.515l-2.775-0.91l-1.384,4.22c-2.999-0.303-6.048-0.072-8.971,0.684
				l-2.007-3.965l-9.813,4.966l2.007,3.965c-2.352,1.918-4.32,4.206-5.857,6.823l-4.222-1.385l-3.427,10.45l4.226,1.383
				c-0.31,3.02-0.081,6.03,0.68,8.968l-3.963,2.006l4.968,9.813l3.964-2.008c1.919,2.355,4.205,4.323,6.82,5.86l-1.382,4.222
				l7.672,2.515l2.776,0.911l1.385-4.221c2.999,0.302,6.048,0.072,8.965-0.684l2.009,3.965l9.81-4.966l-2.006-3.966
				c2.355-1.916,4.322-4.207,5.861-6.823l4.22,1.385l3.426-10.449L768.957,260.997z M751.221,273.746
				c-2.085,1.054-4.314,1.667-6.622,1.818c-1.724,0.113-3.42-0.034-5.045-0.412c-4.862-1.136-9.077-4.361-11.412-8.972
				c-4.274-8.45-0.883-18.8,7.565-23.077c2.087-1.055,4.316-1.667,6.622-1.818c1.725-0.113,3.42,0.032,5.045,0.412
				c4.863,1.135,9.077,4.36,11.412,8.97C763.06,259.119,759.668,269.469,751.221,273.746z"/>
		</g>
		<g>
			<path style="fill-rule:evenodd;clip-rule:evenodd;fill:#EAAB28;" d="M717.425,105.138c19.602,0,35.586-15.986,35.586-35.585
				c0-19.6-15.984-35.585-35.586-35.585c-19.599,0-35.585,15.985-35.585,35.585C681.84,89.152,697.826,105.138,717.425,105.138z"/>
			<path style="fill-rule:evenodd;clip-rule:evenodd;fill:#FFFFFF;" d="M717.425,98.503c15.945,0,28.952-13.005,28.952-28.951
				s-13.007-28.951-28.952-28.951c-15.945,0-28.949,13.005-28.949,28.951S701.479,98.503,717.425,98.503z"/>
			<path style="fill-rule:evenodd;clip-rule:evenodd;fill:#165975;" d="M717.425,48.472L717.425,48.472
				c0.913,0,1.66,0.746,1.66,1.661v17.759c0,0.914-0.747,1.662-1.66,1.662l0,0c-0.913,0-1.66-0.747-1.66-1.662V50.132
				C715.765,49.218,716.512,48.472,717.425,48.472z"/>
			<path style="fill-rule:evenodd;clip-rule:evenodd;fill:#165975;" d="M704.152,57.706L704.152,57.706
				c0.606-0.682,1.663-0.742,2.342-0.134l10.8,9.635c0.679,0.608,0.74,1.664,0.131,2.346l0,0c-0.608,0.682-1.663,0.742-2.346,0.133
				l-10.796-9.635C703.601,59.443,703.543,58.388,704.152,57.706z"/>
			<path style="fill-rule:evenodd;clip-rule:evenodd;fill:#165975;" d="M717.425,46.755c1.013,0,1.836-0.825,1.836-1.836
				c0-1.011-0.823-1.836-1.836-1.836c-1.009,0-1.836,0.825-1.836,1.836C715.589,45.93,716.416,46.755,717.425,46.755z"/>
			<path style="fill-rule:evenodd;clip-rule:evenodd;fill:#165975;" d="M744.858,70.266c0,1.014-0.823,1.836-1.836,1.836
				c-1.017,0-1.837-0.823-1.837-1.836c0-1.014,0.82-1.837,1.837-1.837C744.035,68.429,744.858,69.251,744.858,70.266z"/>
			<path style="fill-rule:evenodd;clip-rule:evenodd;fill:#165975;" d="M717.675,97.696c-1.016,0-1.836-0.822-1.836-1.836
				c0-1.014,0.82-1.836,1.836-1.836c1.013,0,1.836,0.823,1.836,1.836C719.511,96.874,718.688,97.696,717.675,97.696z"/>
			<path style="fill-rule:evenodd;clip-rule:evenodd;fill:#165975;" d="M690.241,70.513c0-1.014,0.824-1.836,1.837-1.836
				c1.016,0,1.836,0.823,1.836,1.836c0,1.015-0.82,1.837-1.836,1.837C691.065,72.35,690.241,71.527,690.241,70.513z"/>
			<path style="fill-rule:evenodd;clip-rule:evenodd;fill:#165975;" d="M717.425,73.847c2.365,0,4.294-1.929,4.294-4.294
				c0-2.365-1.929-4.294-4.294-4.294c-2.364,0-4.294,1.929-4.294,4.294C713.131,71.917,715.06,73.847,717.425,73.847z"/>
		</g>
		<g id="nube_1_">
			<g>
				
					<linearGradient id="SVGID_00000156586545262033405380000010337679463383566491_" gradientUnits="userSpaceOnUse" x1="656.9249" y1="151.4179" x2="656.9249" y2="40.3716">
					<stop  offset="0.4031" style="stop-color:#B0DEF1;stop-opacity:0.1"/>
					<stop  offset="0.4178" style="stop-color:#ABDDF1;stop-opacity:0.1074"/>
					<stop  offset="0.7038" style="stop-color:#50C3ED;stop-opacity:0.2511"/>
					<stop  offset="0.9041" style="stop-color:#16B3EA;stop-opacity:0.3518"/>
					<stop  offset="1" style="stop-color:#00ADE9;stop-opacity:0.4"/>
				</linearGradient>
				
					<path style="opacity:0.9;fill-rule:evenodd;clip-rule:evenodd;fill:url(#SVGID_00000156586545262033405380000010337679463383566491_);" d="
					M626.407,151.416c-9.893-0.011-19.788-0.052-29.683-0.082c-5.686-0.017-27.148-25.312-28.826-31.008
					c-0.709-2.408-0.845-4.932-0.778-7.442c0.152-5.852,1.643-11.289,4.664-16.249c2.475-4.061,5.88-7.048,9.757-9.505
					c4.351-2.757,9.119-4.345,14.081-5.279c3.553-0.668,7.14-1.14,10.718-1.652c0.538-0.077,0.669-0.322,0.759-0.803
					c2.117-11.372,7.34-20.887,15.624-28.517c5.079-4.676,10.907-7.901,17.526-9.455c4.208-0.987,8.481-1.189,12.771-0.975
					c5.073,0.254,10.002,1.284,14.676,3.414c6.691,3.05,12.024,7.857,16.211,14.098c0.85,1.266,1.682,2.546,2.497,3.837
					c0.22,0.348,0.43,0.448,0.841,0.391c3.445-0.47,6.902-0.782,10.378-0.514c4.188,0.323,8.117,1.432,11.457,4.296
					c3.902,3.349,5.771,7.713,6.011,12.941c0.166,3.607-0.213,7.174-0.652,10.736c-0.064,0.523,0.105,0.754,0.465,0.997
					c1.62,1.093,3.436,1.649,5.292,2.037c3.66,0.765,6.989,2.26,9.826,4.833c3.772,3.424,5.848,7.837,6.629,12.954
					c0.437,2.858,23.881,14.567-2.21,40.866C720.115,151.346,639.65,151.43,626.407,151.416z"/>
				<path style="fill-rule:evenodd;clip-rule:evenodd;fill:#FFFFFF;" d="M644.801,130.155c-12.806,0-25.611,0.01-38.416-0.003
					c-9.568-0.01-19.135-0.05-28.704-0.079c-5.497-0.017-10.663-3.946-12.285-9.454c-0.685-2.329-0.817-4.77-0.753-7.197
					c0.148-5.659,1.588-10.917,4.51-15.712c2.393-3.927,5.687-6.815,9.434-9.191c4.209-2.667,8.82-4.202,13.617-5.105
					c3.436-0.646,6.904-1.103,10.363-1.598c0.521-0.075,0.648-0.311,0.735-0.776c2.047-10.996,7.096-20.197,15.108-27.575
					c4.91-4.521,10.546-7.64,16.947-9.142c4.068-0.955,8.199-1.15,12.348-0.943c4.906,0.245,9.674,1.242,14.191,3.301
					c6.473,2.95,11.628,7.597,15.676,13.632c0.822,1.225,1.627,2.463,2.416,3.711c0.213,0.336,0.416,0.433,0.813,0.378
					c3.331-0.454,6.674-0.756,10.035-0.497c4.051,0.313,7.85,1.385,11.077,4.154c3.775,3.239,5.583,7.459,5.813,12.514
					c0.16,3.488-0.206,6.937-0.631,10.382c-0.062,0.506,0.101,0.73,0.447,0.963c1.567,1.057,3.324,1.595,5.118,1.969
					c3.541,0.74,6.76,2.186,9.501,4.674c3.647,3.312,5.655,7.578,6.411,12.526c0.423,2.765,0.304,5.512-0.234,8.263
					c-0.807,4.124-3.243,6.805-6.727,8.551c-3.398,1.7-7.043,2.171-10.762,2.173c-13.853,0.01-27.706,0.016-41.558,0.021
					c-8.165,0.003-16.329,0.001-24.492,0.001C644.801,130.116,644.801,130.135,644.801,130.155z"/>
			</g>
		</g>
		<path style="fill:#D0E2FA;" d="M752.094,300.78l-0.822-2.885c2.462-0.701,4.873-1.638,7.167-2.785l1.342,2.684
			C757.319,299.023,754.733,300.028,752.094,300.78z M766.783,293.444l-1.811-2.393c2.041-1.544,3.953-3.29,5.682-5.187l2.217,2.021
			C771.019,289.917,768.971,291.788,766.783,293.444z M777.842,281.306l-2.551-1.58c1.353-2.183,2.507-4.499,3.432-6.885
			l2.797,1.084C780.529,276.483,779.291,278.966,777.842,281.306z M783.771,265.992l-2.949-0.547
			c0.465-2.512,0.701-5.089,0.701-7.66v-0.181h3v0.181C784.523,260.538,784.271,263.3,783.771,265.992z M780.789,249.953
			c-0.478-2.515-1.193-5.001-2.13-7.388l2.793-1.095c1.004,2.56,1.773,5.226,2.284,7.923L780.789,249.953z M775.201,235.698
			c-1.36-2.172-2.929-4.231-4.663-6.119l2.209-2.029c1.858,2.023,3.54,4.229,4.997,6.557L775.201,235.698z M764.834,224.414
			c-2.051-1.541-4.255-2.897-6.55-4.032l1.33-2.689c2.46,1.217,4.823,2.671,7.022,4.323L764.834,224.414z M756.115,214.454
			c0,4.243-3.439,7.683-7.683,7.683c-4.243,0-7.683-3.439-7.683-7.683c0-4.243,3.44-7.683,7.683-7.683
			C752.676,206.771,756.115,210.211,756.115,214.454z M748.433,303.604c0,4.243-3.439,7.683-7.683,7.683
			c-4.243,0-7.683-3.439-7.683-7.683c0-4.243,3.439-7.683,7.683-7.683C744.993,295.921,748.433,299.361,748.433,303.604z"/>
		<path style="fill:#D0E2FA;" d="M748.565,386.512c-1.16,0.705-2.364,1.365-3.577,1.96l-1.321-2.693
			c2.297-1.126,4.53-2.487,6.571-4.003l1.786,2.41C750.917,385.006,749.753,385.789,748.565,386.512z M737.28,391.403
			c-2.646,0.734-5.378,1.225-8.118,1.457l-0.253-2.989c2.554-0.216,5.101-0.673,7.57-1.359L737.28,391.403z M758.164,378.682
			l-2.2-2.038c1.739-1.878,3.313-3.931,4.678-6.103l2.54,1.597C761.718,374.466,760.029,376.668,758.164,378.682z M720.916,392.796
			c-2.731-0.274-5.453-0.803-8.092-1.573l0.839-2.88c2.464,0.718,5.004,1.212,7.553,1.467L720.916,392.796z M705.154,388.198
			c-2.457-1.241-4.807-2.715-6.983-4.382l1.823-2.382c2.029,1.554,4.222,2.928,6.514,4.086L705.154,388.198z M692.114,378.22
			c-1.826-2.035-3.481-4.26-4.918-6.613l2.56-1.564c1.343,2.197,2.887,4.275,4.592,6.173L692.114,378.22z M686.364,363.14
			l-2.804,1.069c-0.979-2.569-1.724-5.241-2.211-7.943l2.951-0.533C684.756,358.252,685.45,360.744,686.364,363.14z
			 M683.641,348.069l-2.999-0.021c0.019-2.745,0.292-5.506,0.815-8.205l2.944,0.57C683.914,342.932,683.659,345.508,683.641,348.069
			z M686.547,333.024l-2.792-1.097c1.006-2.558,2.254-5.035,3.709-7.362l2.544,1.591
			C688.649,328.327,687.485,330.638,686.547,333.024z M729.393,306.805c-2.553-0.252-5.141-0.267-7.691-0.044l-0.26-2.989
			c2.734-0.238,5.509-0.222,8.246,0.048L729.393,306.805z M694.675,320.044l-2.205-2.034c1.858-2.016,3.921-3.872,6.128-5.516
			l1.791,2.406C698.331,316.434,696.408,318.164,694.675,320.044z M714.133,308.135c-2.461,0.688-4.878,1.613-7.181,2.749
			l-1.327-2.69c2.47-1.218,5.06-2.209,7.701-2.948L714.133,308.135z M772.85,371.978l-0.247-22.532l-18.898,12.271L772.85,371.978z"
			/>
	</g>
	<g>
		<g>
			<g id="nube">
				<g>
					
						<linearGradient id="SVGID_00000110435551898643352600000008248557430802160776_" gradientUnits="userSpaceOnUse" x1="164.2618" y1="224.629" x2="164.2618" y2="101.8766">
						<stop  offset="0.4031" style="stop-color:#B0DEF1;stop-opacity:0.1"/>
						<stop  offset="0.4178" style="stop-color:#ABDDF1;stop-opacity:0.1074"/>
						<stop  offset="0.7038" style="stop-color:#50C3ED;stop-opacity:0.2511"/>
						<stop  offset="0.9041" style="stop-color:#16B3EA;stop-opacity:0.3518"/>
						<stop  offset="1" style="stop-color:#00ADE9;stop-opacity:0.4"/>
					</linearGradient>
					
						<path style="opacity:0.9;fill-rule:evenodd;clip-rule:evenodd;fill:url(#SVGID_00000110435551898643352600000008248557430802160776_);" d="
						M132.367,224.313c-10.91-0.011-21.819-0.057-32.729-0.09c-6.268-0.02-29.933-27.909-31.783-34.189
						c-0.783-2.655-0.932-5.439-0.86-8.206c0.169-6.452,1.812-12.447,5.144-17.916c2.728-4.478,6.483-7.77,10.758-10.48
						c4.797-3.041,10.055-4.79,15.525-5.821c3.917-0.738,7.873-1.257,11.818-1.822c0.593-0.085,0.738-0.355,0.837-0.885
						c2.335-12.539,8.092-23.03,17.227-31.442c5.599-5.156,12.025-8.712,19.324-10.425c4.639-1.089,9.351-1.312,14.081-1.075
						c5.594,0.28,11.028,1.416,16.181,3.765c7.378,3.363,13.258,8.663,17.874,15.545c0.937,1.396,1.855,2.807,2.754,4.231
						c0.242,0.384,0.474,0.494,0.927,0.432c3.799-0.519,7.611-0.863,11.442-0.567c4.619,0.357,8.951,1.579,12.632,4.737
						c4.304,3.692,6.364,8.505,6.628,14.269c0.182,3.978-0.235,7.91-0.719,11.838c-0.071,0.576,0.115,0.832,0.511,1.098
						c1.787,1.205,3.789,1.818,5.835,2.246c4.038,0.844,7.707,2.492,10.835,5.33c4.159,3.775,6.447,8.641,7.309,14.283
						c0.481,3.151,17.5,21.708-0.926,44.306C249.121,225.413,146.968,224.329,132.367,224.313z"/>
					<path style="fill-rule:evenodd;clip-rule:evenodd;fill:#FFFFFF;" d="M152.647,200.871c-14.119,0-28.238,0.011-42.357-0.004
						c-10.549-0.011-21.099-0.055-31.647-0.087c-6.062-0.019-11.758-4.352-13.547-10.424c-0.756-2.568-0.901-5.259-0.831-7.936
						c0.164-6.239,1.751-12.036,4.973-17.324c2.638-4.33,6.27-7.514,10.402-10.134c4.64-2.941,9.724-4.633,15.013-5.629
						c3.789-0.714,7.613-1.216,11.428-1.762c0.573-0.082,0.714-0.343,0.81-0.856c2.257-12.124,7.824-22.269,16.658-30.403
						c5.414-4.986,11.628-8.425,18.686-10.082c4.486-1.053,9.042-1.268,13.616-1.039c5.409,0.271,10.665,1.369,15.647,3.64
						c7.135,3.252,12.82,8.377,17.284,15.03c0.906,1.351,1.794,2.715,2.664,4.092c0.233,0.372,0.458,0.477,0.896,0.417
						c3.673-0.501,7.359-0.834,11.065-0.548c4.466,0.345,8.655,1.527,12.215,4.58c4.162,3.57,6.154,8.225,6.409,13.797
						c0.176,3.847-0.229,7.649-0.696,11.448c-0.068,0.557,0.112,0.804,0.495,1.062c1.728,1.165,3.664,1.758,5.643,2.171
						c3.903,0.816,7.453,2.41,10.476,5.154c4.022,3.65,6.235,8.356,7.069,13.811c0.466,3.048,0.335,6.078-0.259,9.111
						c-0.89,4.546-3.576,7.503-7.418,9.427c-3.744,1.874-7.766,2.394-11.866,2.396c-15.273,0.011-30.548,0.018-45.822,0.023
						c-9.001,0.003-18.002,0.001-27.004,0.001C152.647,200.828,152.647,200.849,152.647,200.871z"/>
				</g>
			</g>
			<g id="nube_5_">
				<g>
					
						<linearGradient id="SVGID_00000023977116669708777130000003437006882254254737_" gradientUnits="userSpaceOnUse" x1="201.3936" y1="243.1587" x2="201.3936" y2="168.2094">
						<stop  offset="0.4031" style="stop-color:#B0DEF1;stop-opacity:0.1"/>
						<stop  offset="0.4178" style="stop-color:#ABDDF1;stop-opacity:0.1074"/>
						<stop  offset="0.7038" style="stop-color:#50C3ED;stop-opacity:0.2511"/>
						<stop  offset="0.9041" style="stop-color:#16B3EA;stop-opacity:0.3518"/>
						<stop  offset="1" style="stop-color:#00ADE9;stop-opacity:0.4"/>
					</linearGradient>
					
						<path style="opacity:0.9;fill-rule:evenodd;clip-rule:evenodd;fill:url(#SVGID_00000023977116669708777130000003437006882254254737_);" d="
						M180.796,243.158c-6.678-0.007-13.356-0.035-20.034-0.055c-3.837-0.012-18.323-17.085-19.456-20.929
						c-0.479-1.625-0.57-3.329-0.526-5.023c0.104-3.949,1.109-7.619,3.148-10.967c1.67-2.741,3.969-4.756,6.585-6.415
						c2.937-1.861,6.155-2.933,9.504-3.564c2.398-0.451,4.819-0.77,7.234-1.115c0.363-0.052,0.452-0.217,0.513-0.542
						c1.429-7.675,4.954-14.097,10.545-19.247c3.428-3.156,7.361-5.333,11.829-6.381c2.84-0.666,5.724-0.803,8.619-0.658
						c3.425,0.171,6.751,0.867,9.906,2.305c4.516,2.059,8.116,5.303,10.941,9.515c0.573,0.855,1.135,1.719,1.686,2.591
						c0.148,0.235,0.29,0.302,0.567,0.264c2.326-0.317,4.659-0.528,7.005-0.347c2.827,0.218,5.479,0.966,7.732,2.9
						c2.634,2.26,3.896,5.206,4.057,8.734c0.112,2.435-0.143,4.842-0.44,7.247c-0.043,0.353,0.071,0.509,0.314,0.673
						c1.093,0.737,2.319,1.113,3.572,1.374c2.471,0.516,4.717,1.525,6.632,3.262c2.546,2.311,3.946,5.29,4.475,8.743
						c0.294,1.93,16.119,9.832-1.491,27.582C244.043,243.11,189.734,243.167,180.796,243.158z"/>
					<path style="fill-rule:evenodd;clip-rule:evenodd;fill:#FFFFFF;" d="M193.21,229.477c-8.643,0-17.286,0.007-25.929-0.002
						c-6.458-0.006-12.915-0.033-19.373-0.053c-3.71-0.011-7.197-2.664-8.292-6.381c-0.463-1.572-0.552-3.219-0.509-4.857
						c0.101-3.819,1.072-7.368,3.044-10.604c1.615-2.651,3.838-4.6,6.368-6.204c2.84-1.8,5.952-2.836,9.19-3.445
						c2.319-0.437,4.66-0.745,6.996-1.079c0.351-0.05,0.437-0.21,0.496-0.524c1.381-7.422,4.79-13.631,10.197-18.611
						c3.314-3.052,7.118-5.157,11.438-6.171c2.746-0.645,5.535-0.776,8.335-0.636c3.311,0.166,6.528,0.838,9.578,2.229
						c4.368,1.991,7.848,5.127,10.581,9.201c0.554,0.827,1.098,1.663,1.63,2.505c0.143,0.227,0.281,0.292,0.549,0.255
						c2.248-0.307,4.505-0.511,6.773-0.336c2.733,0.212,5.298,0.935,7.477,2.804c2.548,2.186,3.767,5.035,3.923,8.446
						c0.108,2.354-0.139,4.682-0.426,7.007c-0.042,0.341,0.068,0.493,0.302,0.65c1.058,0.713,2.243,1.076,3.454,1.329
						c2.39,0.499,4.563,1.475,6.413,3.155c2.461,2.235,3.816,5.115,4.327,8.454c0.285,1.866,0.205,3.721-0.158,5.578
						c-0.545,2.783-2.189,4.593-4.541,5.771c-2.292,1.148-4.754,1.465-7.264,1.467c-9.349,0.007-18.699,0.011-28.049,0.014
						c-5.51,0.002-11.021,0.001-16.53,0.001C193.21,229.45,193.21,229.463,193.21,229.477z"/>
				</g>
			</g>
		</g>
		<g>
			<path style="fill-rule:evenodd;clip-rule:evenodd;fill:#FFFFFF;" d="M71.259,97.96c12.402-4.378,26.005,2.126,30.384,14.529
				c2.854,8.083,1.085,16.676-3.928,22.893l4.166,19.347l-18.818,6.644l-8.904-17.674c-7.803-1.692-14.577-7.269-17.431-15.353
				C52.35,115.944,58.856,102.339,71.259,97.96z"/>
			<g>
				
					<linearGradient id="SVGID_00000110433916727092676780000007175876000769733036_" gradientUnits="userSpaceOnUse" x1="70.371" y1="136.8235" x2="93.785" y2="136.8235">
					<stop  offset="0" style="stop-color:#BC6119"/>
					<stop  offset="0.1582" style="stop-color:#BE6520"/>
					<stop  offset="0.5549" style="stop-color:#C16D2A"/>
					<stop  offset="1" style="stop-color:#C26F2E"/>
				</linearGradient>
				<path style="fill:url(#SVGID_00000110433916727092676780000007175876000769733036_);" d="M85.437,149.858
					c0.283,0.438,0.161,1.023-0.277,1.308c-0.438,0.285-1.023,0.161-1.309-0.276l-9.314-14.226l-2.578-7.303l0.152,0.145
					c-0.048-0.074-0.105-0.139-0.169-0.194l-0.012-0.035c0.447,0.229,0.915,0.428,1.401,0.599c2.831,0.996,6.043,0.909,8.903-0.086
					c2.844-0.988,5.323-2.868,6.708-5.461c0.228-0.428,0.43-0.885,0.6-1.369c0.173-0.493,0.714-0.752,1.207-0.579
					c0.369,0.13,0.61,0.467,0.63,0.836l2.4,24.167c0.055,0.519-0.326,0.983-0.846,1.037c-0.519,0.054-0.982-0.325-1.037-0.845
					l-2.09-21.064c-1.678,2.366-4.17,4.095-6.953,5.063c-2.911,1.012-6.155,1.194-9.127,0.401L85.437,149.858z M74.537,136.664
					l-4.012-6.125c-0.286-0.438-0.162-1.024,0.277-1.309c0.316-0.204,0.703-0.197,1.005-0.016l0.122,0.064l0.012,0.035
					c-0.043-0.037-0.087-0.069-0.134-0.098l0.152,0.147L74.537,136.664z"/>
			</g>
			
				<linearGradient id="SVGID_00000036211186029987084990000012989041925635056034_" gradientUnits="userSpaceOnUse" x1="75.7285" y1="153.6712" x2="104.4826" y2="153.6712">
				<stop  offset="0" style="stop-color:#BC6119"/>
				<stop  offset="0.1582" style="stop-color:#BE6520"/>
				<stop  offset="0.5549" style="stop-color:#C16D2A"/>
				<stop  offset="1" style="stop-color:#C26F2E"/>
			</linearGradient>
			<path style="fill-rule:evenodd;clip-rule:evenodd;fill:url(#SVGID_00000036211186029987084990000012989041925635056034_);" d="
				M75.729,151.236l25.498-9.002l2.914,12.325c0.53,2.228,0.813,3.277-2.049,4.287l-16.608,5.864
				c-2.861,1.01-3.299,0.017-4.289-2.05L75.729,151.236z"/>
			<g>
				<path style="fill:#FFFFFF;" d="M78.273,74.278c0.008-0.653,0.539-1.178,1.192-1.172c0.653,0.005,1.18,0.539,1.173,1.193
					l-0.146,15.264c-0.007,0.653-0.539,1.177-1.192,1.172c-0.652-0.005-1.179-0.539-1.172-1.193L78.273,74.278z"/>
				<path style="fill:#FFFFFF;" d="M93.933,76.772c0.228-0.612,0.911-0.922,1.523-0.694c0.612,0.228,0.922,0.911,0.694,1.523
					l-5.359,14.294c-0.228,0.612-0.911,0.923-1.524,0.694c-0.612-0.229-0.922-0.911-0.694-1.523L93.933,76.772z"/>
				<path style="fill:#FFFFFF;" d="M107.795,84.474c0.425-0.497,1.171-0.557,1.668-0.133c0.497,0.424,0.555,1.171,0.132,1.668
					L99.67,97.607c-0.423,0.497-1.169,0.555-1.669,0.132c-0.494-0.424-0.554-1.171-0.131-1.667L107.795,84.474z"/>
				<path style="fill:#FFFFFF;" d="M118.188,96.447c0.572-0.322,1.295-0.119,1.615,0.452c0.32,0.571,0.119,1.293-0.454,1.614
					l-13.29,7.503c-0.572,0.322-1.295,0.119-1.615-0.451c-0.32-0.57-0.118-1.293,0.451-1.613L118.188,96.447z"/>
				<path style="fill:#FFFFFF;" d="M62.703,77.289c-0.218-0.618,0.107-1.295,0.724-1.513c0.615-0.217,1.293,0.106,1.511,0.724
					l5.081,14.394c0.218,0.618-0.106,1.295-0.721,1.512c-0.618,0.218-1.295-0.105-1.514-0.723L62.703,77.289z"/>
				<path style="fill:#FFFFFF;" d="M49.1,85.433c-0.413-0.505-0.341-1.251,0.164-1.665c0.505-0.414,1.251-0.341,1.664,0.164
					l9.7,11.788c0.413,0.505,0.341,1.251-0.164,1.664c-0.505,0.414-1.25,0.342-1.664-0.163L49.1,85.433z"/>
				<path style="fill:#FFFFFF;" d="M39.1,97.743c-0.562-0.333-0.747-1.06-0.416-1.621c0.333-0.562,1.059-0.749,1.621-0.416
					l13.145,7.76c0.563,0.333,0.75,1.059,0.416,1.621c-0.333,0.563-1.06,0.749-1.622,0.416L39.1,97.743z"/>
				<path style="fill:#FFFFFF;" d="M33.917,112.728c-0.644-0.12-1.066-0.739-0.945-1.381c0.118-0.642,0.738-1.064,1.379-0.943
					l15.007,2.795c0.64,0.121,1.065,0.739,0.944,1.38c-0.121,0.642-0.738,1.065-1.381,0.945L33.917,112.728z"/>
				<path style="fill:#FFFFFF;" d="M34.172,128.584c-0.647,0.109-1.258-0.326-1.364-0.972c-0.108-0.646,0.327-1.257,0.971-1.365
					l15.058-2.505c0.645-0.108,1.255,0.328,1.363,0.973c0.109,0.645-0.327,1.256-0.971,1.364L34.172,128.584z"/>
			</g>
		</g>
		<g>
			<path style="fill:#EAAB28;" d="M254.496,387.268l-1.033-15.762l-7.472,0.49c-1.517-5.983-4.26-11.44-7.943-16.108l4.937-5.628
				l-11.873-10.413l-4.94,5.628c-3.766-2.242-7.892-3.924-12.258-4.941c-1.554-0.361-3.14-0.64-4.748-0.828l-0.491-7.474
				l-15.761,1.034l0.49,7.474c-5.981,1.513-11.44,4.26-16.108,7.942l-5.628-4.934l-10.413,11.875l5.628,4.935
				c-3.042,5.108-5.048,10.877-5.771,17.008l-7.472,0.49l1.034,15.761l7.471-0.49c1.518,5.985,4.262,11.442,7.942,16.109
				l-4.935,5.63l11.875,10.412l4.937-5.628c3.766,2.242,7.893,3.923,12.256,4.94c1.556,0.362,3.142,0.641,4.752,0.83l0.49,7.473
				l15.76-1.034l-0.489-7.474c5.984-1.514,11.439-4.259,16.107-7.941l5.632,4.936l10.412-11.877l-5.629-4.937
				c3.042-5.107,5.048-10.875,5.77-17.007L254.496,387.268z M206.158,414.536c-3.225,0.211-6.369-0.065-9.363-0.764
				c-13.34-3.113-23.657-14.641-24.602-29.019c-1.154-17.605,12.181-32.811,29.784-33.965c3.225-0.212,6.369,0.064,9.361,0.763
				c13.341,3.113,23.658,14.642,24.601,29.021C237.095,398.175,223.762,413.38,206.158,414.536z"/>
			
				<linearGradient id="SVGID_00000060715324238189816520000016170956772824822171_" gradientUnits="userSpaceOnUse" x1="213.2461" y1="458.7055" x2="281.7207" y2="458.7055">
				<stop  offset="0" style="stop-color:#BC6119"/>
				<stop  offset="0.1582" style="stop-color:#BE6520"/>
				<stop  offset="0.5549" style="stop-color:#C16D2A"/>
				<stop  offset="1" style="stop-color:#C26F2E"/>
			</linearGradient>
			<path style="fill:url(#SVGID_00000060715324238189816520000016170956772824822171_);" d="M276.858,461.668
				c0.353-3.482,0.086-6.947-0.788-10.333l4.566-2.314l-5.72-11.304l-4.569,2.312c-2.207-2.711-4.849-4.978-7.86-6.75l1.594-4.864
				l-8.84-2.898l-3.198-1.048l-1.595,4.862c-3.454-0.349-6.969-0.083-10.335,0.789l-2.313-4.568l-11.306,5.722l2.313,4.568
				c-2.711,2.21-4.978,4.847-6.75,7.862l-4.864-1.596l-3.947,12.04l4.868,1.594c-0.357,3.479-0.094,6.947,0.782,10.332l-4.566,2.312
				l5.726,11.306l4.566-2.314c2.21,2.714,4.845,4.98,7.857,6.752l-1.592,4.864l8.84,2.898l3.2,1.049l1.596-4.863
				c3.455,0.348,6.967,0.083,10.328-0.788l2.314,4.568l11.304-5.722l-2.311-4.569c2.714-2.208,4.979-4.847,6.753-7.862l4.862,1.596
				l3.947-12.04L276.858,461.668z M256.422,476.358c-2.402,1.215-4.971,1.921-7.631,2.096c-1.986,0.13-3.94-0.039-5.811-0.475
				c-5.604-1.309-10.459-5.025-13.149-10.337c-4.925-9.736-1.018-21.662,8.717-26.59c2.404-1.215,4.972-1.92,7.63-2.095
				c1.986-0.13,3.941,0.038,5.813,0.475c5.604,1.308,10.459,5.023,13.148,10.335C270.064,459.505,266.153,471.431,256.422,476.358z"
				/>
		</g>
		<g>
			<path style="fill:#D0E2FA;stroke:#D0E2FA;stroke-width:2;stroke-miterlimit:10;" d="M172.477,446.331
				c-0.243-0.083-0.43-0.203-0.603-0.393c-0.907-1.067,0.112-2.613,1.442-2.207l0.123,0.041l0.51,0.16l0.505,0.151l0.498,0.143
				l0.493,0.131l0.399,0.101c0.273,0.063,0.528,0.223,0.71,0.433c0.863,1.016-0.06,2.526-1.355,2.224l-0.441-0.111l-0.534-0.143
				l-0.537-0.152l-0.541-0.163l-0.546-0.172L172.477,446.331z"/>
			<path style="fill:#D0E2FA;stroke:#D0E2FA;stroke-width:2;stroke-miterlimit:10;" d="M157.512,438.922
				c-1.29-0.832-0.454-2.835,1.062-2.48c0.146,0.04,0.274,0.09,0.401,0.172l0.258,0.165l0.612,0.386l0.612,0.377l0.606,0.369
				l0.198,0.118c1.28,0.751,0.599,2.772-0.942,2.522c-0.163-0.032-0.305-0.084-0.446-0.168l-0.219-0.13l-0.625-0.38l-0.629-0.389
				l-0.632-0.396L157.512,438.922z"/>
			<path style="fill:#D0E2FA;stroke:#D0E2FA;stroke-width:2;stroke-miterlimit:10;" d="M144.207,429.058
				c-1.242-1.063,0.057-3.006,1.52-2.255c0.086,0.048,0.153,0.094,0.23,0.154l0.469,0.394l0.661,0.546l0.657,0.539l0.303,0.245
				c1.185,0.955,0.14,2.861-1.317,2.351c-0.147-0.057-0.271-0.121-0.395-0.222l-0.315-0.255l-0.67-0.549l-0.672-0.555
				L144.207,429.058z"/>
			<path style="fill:#D0E2FA;stroke:#D0E2FA;stroke-width:2;stroke-miterlimit:10;" d="M132.081,417.838
				c-1.033-1.062,0.1-2.769,1.479-2.231c0.183,0.079,0.317,0.164,0.459,0.305l0.36,0.364l0.675,0.675l0.674,0.668l0.212,0.208
				c1.122,1.113-0.217,2.952-1.65,2.155c-0.095-0.06-0.181-0.122-0.26-0.199l-0.221-0.218l-0.685-0.677l-0.683-0.684
				L132.081,417.838z"/>
			<path style="fill:#D0E2FA;stroke:#D0E2FA;stroke-width:2;stroke-miterlimit:10;" d="M120.953,405.663
				c-0.383-0.457-0.438-1.094-0.127-1.602c0.473-0.789,1.614-0.876,2.204-0.174l0.602,0.708l0.666,0.777l0.503,0.581
				c0.912,1.089-0.169,2.645-1.501,2.18c-0.217-0.086-0.409-0.205-0.56-0.386l-0.512-0.59l-0.675-0.787L120.953,405.663z"/>
			<path style="fill:#D0E2FA;stroke:#D0E2FA;stroke-width:2;stroke-miterlimit:10;" d="M110.748,392.704
				c-0.934-1.294,0.724-2.899,2.005-1.835c0.077,0.071,0.134,0.133,0.198,0.218l0.211,0.289l0.641,0.868l0.642,0.862l0.121,0.16
				c0.886,1.163-0.46,2.755-1.787,1.999c-0.157-0.097-0.28-0.204-0.393-0.351l-0.127-0.171l-0.65-0.872l-0.647-0.878
				L110.748,392.704z"/>
			<path style="fill:#D0E2FA;stroke:#D0E2FA;stroke-width:2;stroke-miterlimit:10;" d="M101.473,379.071
				c-0.833-1.341,0.89-2.821,2.104-1.713c0.083,0.082,0.142,0.154,0.206,0.254l0.09,0.142l0.599,0.942l0.601,0.938l0.172,0.264
				c0.312,0.475,0.292,1.083-0.035,1.546c-0.566,0.776-1.727,0.752-2.254-0.052l-0.179-0.275l-0.608-0.949l-0.605-0.953
				L101.473,379.071z"/>
			<path style="fill:#D0E2FA;stroke:#D0E2FA;stroke-width:2;stroke-miterlimit:10;" d="M93.17,364.827
				c-0.153-0.29-0.207-0.624-0.132-0.946c0.289-1.236,1.919-1.462,2.537-0.353l0.308,0.573l0.544,1.003l0.446,0.812
				c0.701,1.259-0.807,2.637-2.021,1.751c-0.156-0.121-0.273-0.252-0.371-0.429l-0.453-0.825l-0.551-1.014L93.17,364.827z"/>
			<path style="fill:#D0E2FA;stroke:#D0E2FA;stroke-width:2;stroke-miterlimit:10;" d="M85.917,350.014
				c-0.609-1.387,1.145-2.6,2.231-1.507c0.106,0.114,0.197,0.242,0.263,0.389l0.347,0.778l0.476,1.054l0.296,0.645
				c0.623,1.419-1.153,2.599-2.215,1.531c-0.116-0.122-0.193-0.231-0.267-0.386l-0.302-0.658l-0.482-1.067L85.917,350.014z"/>
			<path style="fill:#D0E2FA;stroke:#D0E2FA;stroke-width:2;stroke-miterlimit:10;" d="M79.829,334.676
				c-0.236-0.669,0.073-1.401,0.717-1.7c0.726-0.336,1.591,0.03,1.858,0.784l0.293,0.832l0.392,1.097l0.23,0.628
				c0.143,0.37,0.102,0.805-0.094,1.147c-0.589,1.011-2.05,0.89-2.47-0.201l-0.236-0.644l-0.398-1.111L79.829,334.676z"/>
			<path style="fill:#D0E2FA;stroke:#D0E2FA;stroke-width:2;stroke-miterlimit:10;" d="M75.054,318.869
				c-0.375-1.469,1.576-2.376,2.456-1.104c0.087,0.133,0.15,0.269,0.188,0.42l0.203,0.799l0.297,1.129l0.189,0.697
				c0.357,1.413-1.38,2.333-2.345,1.262c-0.141-0.164-0.236-0.335-0.293-0.543l-0.191-0.715l-0.302-1.148L75.054,318.869z"/>
			<path style="fill:#D0E2FA;stroke:#D0E2FA;stroke-width:2;stroke-miterlimit:10;" d="M71.761,302.676
				c-0.123-0.848,0.525-1.593,1.381-1.578c0.655,0.017,1.225,0.504,1.319,1.155l0.109,0.717l0.185,1.154l0.137,0.808
				c0.254,1.436-1.673,2.228-2.498,0.967c-0.102-0.163-0.163-0.318-0.195-0.506l-0.14-0.827l-0.188-1.174L71.761,302.676z"/>
			<path style="fill:#D0E2FA;stroke:#D0E2FA;stroke-width:2;stroke-miterlimit:10;" d="M70.145,286.219
				c-0.063-1.599,2.224-2.018,2.688-0.403c0.021,0.09,0.038,0.18,0.041,0.274l0.024,0.585l0.061,1.17l0.058,0.952
				c0.101,1.424-1.844,2.043-2.572,0.727c-0.092-0.176-0.141-0.352-0.156-0.554l-0.057-0.973l-0.063-1.193L70.145,286.219z"/>
			<path style="fill:#D0E2FA;stroke:#D0E2FA;stroke-width:2;stroke-miterlimit:10;" d="M70.387,269.671
				c0.091-1.419,2.088-1.776,2.643-0.382c0.068,0.201,0.097,0.362,0.084,0.577l-0.027,0.352l-0.08,1.178l-0.067,1.174
				c-0.099,1.539-2.253,1.778-2.683,0.287c-0.035-0.148-0.057-0.28-0.047-0.434l0.07-1.197l0.081-1.203L70.387,269.671z"/>
			<polygon style="fill:#D0E2FA;stroke:#D0E2FA;stroke-width:2;stroke-miterlimit:10;" points="82.586,267.243 74.161,247.08 
				61.641,264.99 			"/>
			<path style="fill:#D0E2FA;stroke:#D0E2FA;stroke-width:2;stroke-miterlimit:10;" d="M189.742,441.853
				c0.927-1.083,2.731-0.155,2.346,1.267c-0.064,0.208-0.142,0.36-0.284,0.527l-0.29,0.32l-0.299,0.31l-0.308,0.296l-0.317,0.284
				l-0.326,0.272l-0.334,0.259l-0.344,0.246l-0.075,0.051c-1.217,0.837-2.76-0.601-1.892-1.914c0.098-0.134,0.203-0.241,0.339-0.336
				l0.076-0.05l0.263-0.19l0.257-0.198l0.25-0.208l0.244-0.219l0.238-0.229l0.23-0.239L189.742,441.853z"/>
		</g>
		<g>
			<path style="fill:#D0E2FA;stroke:#D0E2FA;stroke-width:2;stroke-miterlimit:10;" d="M171.969,438.748
				c-1.309-0.713-0.689-2.743,0.845-2.553c0.169,0.027,0.31,0.071,0.46,0.152l0.533,0.294l0.583,0.313l0.579,0.302l0.575,0.292
				l0.091,0.044c1.391,0.7,0.754,2.779-0.79,2.582c-0.15-0.024-0.265-0.06-0.401-0.123l-0.12-0.06l-0.604-0.307l-0.607-0.316
				l-0.61-0.327L171.969,438.748z"/>
			<path style="fill:#D0E2FA;stroke:#D0E2FA;stroke-width:2;stroke-miterlimit:10;" d="M158.375,429.143
				c-1.23-1.054,0.054-3.006,1.528-2.249c0.081,0.045,0.159,0.096,0.229,0.156l0.369,0.313l0.62,0.517l0.619,0.508l0.475,0.382
				c1.163,0.938,0.188,2.822-1.284,2.365c-0.157-0.054-0.296-0.126-0.426-0.232l-0.491-0.397l-0.634-0.521l-0.636-0.53
				L158.375,429.143z"/>
			<path style="fill:#D0E2FA;stroke:#D0E2FA;stroke-width:2;stroke-miterlimit:10;" d="M146.448,417.662
				c-0.947-1.03,0.075-2.648,1.412-2.233c0.232,0.08,0.419,0.187,0.588,0.371l0.189,0.206l0.625,0.665l0.625,0.661l0.42,0.438
				c0.99,1.017-0.065,2.718-1.451,2.233c-0.204-0.079-0.363-0.179-0.517-0.336l-0.431-0.45l-0.635-0.671l-0.636-0.679
				L146.448,417.662z"/>
			<path style="fill:#D0E2FA;stroke:#D0E2FA;stroke-width:2;stroke-miterlimit:10;" d="M135.797,405.039
				c-0.31-0.406-0.371-0.92-0.17-1.388c0.412-0.941,1.707-1.104,2.331-0.285l0.196,0.254l0.606,0.78l0.608,0.775l0.261,0.328
				c0.961,1.208-0.523,2.851-1.834,1.984c-0.114-0.078-0.217-0.171-0.302-0.279l-0.268-0.339l-0.618-0.785l-0.614-0.79
				L135.797,405.039z"/>
			<path style="fill:#D0E2FA;stroke:#D0E2FA;stroke-width:2;stroke-miterlimit:10;" d="M126.245,391.586
				c-0.752-1.149,0.477-2.574,1.738-1.979c0.231,0.123,0.402,0.26,0.546,0.481l0.185,0.281l0.571,0.869l0.576,0.863l0.166,0.249
				c0.812,1.24-0.6,2.697-1.867,1.916c-0.164-0.108-0.284-0.224-0.396-0.385l-0.174-0.259l-0.582-0.874l-0.581-0.879
				L126.245,391.586z"/>
			<path style="fill:#D0E2FA;stroke:#D0E2FA;stroke-width:2;stroke-miterlimit:10;" d="M117.735,377.46
				c-0.743-1.335,0.96-2.73,2.136-1.656c0.1,0.096,0.182,0.201,0.251,0.324l0.37,0.665l0.523,0.936l0.438,0.771
				c0.718,1.288-0.804,2.647-2.01,1.768c-0.155-0.12-0.262-0.241-0.363-0.413l-0.444-0.784l-0.531-0.946L117.735,377.46z"/>
			<path style="fill:#D0E2FA;stroke:#D0E2FA;stroke-width:2;stroke-miterlimit:10;" d="M110.285,362.745
				c-0.493-1.122,0.553-2.263,1.7-1.862c0.354,0.138,0.614,0.361,0.777,0.71l0.347,0.751l0.461,0.985l0.346,0.726
				c0.667,1.42-1.198,2.67-2.259,1.492c-0.086-0.096-0.15-0.198-0.209-0.315l-0.35-0.738l-0.468-0.999L110.285,362.745z"/>
			<path style="fill:#D0E2FA;stroke:#D0E2FA;stroke-width:2;stroke-miterlimit:10;" d="M103.972,347.499
				c-0.186-0.48-0.068-1.002,0.262-1.387c0.698-0.765,1.928-0.532,2.3,0.434l0.261,0.706l0.383,1.022l0.311,0.817
				c0.528,1.372-1.222,2.544-2.305,1.39c-0.106-0.125-0.187-0.254-0.246-0.409l-0.316-0.83l-0.39-1.036L103.972,347.499z"/>
			<path style="fill:#D0E2FA;stroke:#D0E2FA;stroke-width:2;stroke-miterlimit:10;" d="M98.939,331.774
				c-0.395-1.458,1.526-2.398,2.434-1.15c0.092,0.131,0.16,0.271,0.2,0.424l0.193,0.706l0.29,1.04l0.248,0.869
				c0.4,1.321-1.269,2.362-2.297,1.327c-0.161-0.17-0.261-0.343-0.328-0.568l-0.253-0.884l-0.295-1.058L98.939,331.774z"/>
			<path style="fill:#D0E2FA;stroke:#D0E2FA;stroke-width:2;stroke-miterlimit:10;" d="M95.404,315.631
				c-0.253-1.43,1.665-2.234,2.503-0.961c0.098,0.16,0.158,0.318,0.19,0.499l0.153,0.914l0.183,1.045l0.131,0.715
				c0.109,0.618-0.201,1.23-0.774,1.491c-0.8,0.372-1.759-0.124-1.913-0.993l-0.133-0.733l-0.187-1.064L95.404,315.631z"/>
			<path style="fill:#D0E2FA;stroke:#D0E2FA;stroke-width:2;stroke-miterlimit:10;" d="M93.668,299.167
				c-0.059-1.483,1.945-1.983,2.595-0.66c0.079,0.174,0.127,0.339,0.136,0.534l0.017,0.4l0.052,1.033l0.061,1.034l0.015,0.228
				c0.109,1.514-2.004,2.06-2.625,0.618c-0.057-0.137-0.09-0.276-0.1-0.425l-0.018-0.25l-0.062-1.057l-0.054-1.055L93.668,299.167z"
				/>
			<path style="fill:#D0E2FA;stroke:#D0E2FA;stroke-width:2;stroke-miterlimit:10;" d="M94.123,282.593
				c0.141-1.445,2.177-1.702,2.658-0.292c0.059,0.192,0.079,0.362,0.061,0.563l-0.03,0.289l-0.095,1.002l-0.086,1.005l-0.028,0.385
				c-0.094,1.455-2.166,1.781-2.667,0.314c-0.052-0.176-0.071-0.323-0.061-0.507l0.032-0.412l0.087-1.032l0.098-1.029
				L94.123,282.593z"/>
			<path style="fill:#D0E2FA;stroke:#D0E2FA;stroke-width:2;stroke-miterlimit:10;" d="M97.206,266.272
				c0.358-1.334,2.293-1.336,2.642,0.033c0.055,0.247,0.058,0.451-0.008,0.696l-0.14,0.495l-0.26,0.954l-0.247,0.959l-0.047,0.188
				c-0.071,0.304-0.24,0.556-0.48,0.751c-1.034,0.796-2.47-0.132-2.176-1.391l0.054-0.217l0.255-0.988l0.268-0.984L97.206,266.272z"
				/>
			<path style="fill:#D0E2FA;stroke:#D0E2FA;stroke-width:2;stroke-miterlimit:10;" d="M103.264,250.78
				c0.659-1.31,2.667-0.81,2.585,0.714c-0.016,0.18-0.059,0.346-0.141,0.507l-0.372,0.733l-0.437,0.892l-0.379,0.797
				c-0.263,0.565-0.889,0.882-1.498,0.762c-0.877-0.173-1.353-1.113-0.978-1.922l0.395-0.827l0.452-0.923L103.264,250.78z"/>
			<polygon style="fill:#D0E2FA;stroke:#D0E2FA;stroke-width:2;stroke-miterlimit:10;" points="117.558,251.96 119.842,229.543 
				99.685,239.616 			"/>
			<path style="fill:#D0E2FA;stroke:#D0E2FA;stroke-width:2;stroke-miterlimit:10;" d="M190.691,441.386
				c0.398-0.016,0.755,0.11,1.042,0.392c0.836,0.841,0.303,2.251-0.879,2.335l-0.53,0.026l-0.532,0.011l-0.537,0l-0.538-0.014
				l-0.544-0.026l-0.213-0.015c-0.471-0.03-0.886-0.291-1.115-0.704c-0.518-0.937,0.209-2.093,1.277-2.024l0.214,0.015l0.479,0.023
				l0.477,0.012l0.472,0.001l0.467-0.01L190.691,441.386z"/>
		</g>
		<g>
			<path style="fill:#0F859E;" d="M126.466,302.109c-16.365-4.67-32.707,2.322-36.502,15.62
				c-3.795,13.295,6.396,27.86,22.761,32.531c1.572,0.448,3.143,0.788,4.702,1.024c4.549,8.183,11.819,11.492,19.119,13.756
				l0.444-1.558c-3.413-3.076-5.845-7.598-4.69-11.643c0.161-0.564,0.363-1.107,0.6-1.625c7.962-2.501,14.171-8.021,16.327-15.574
				C153.022,321.345,142.831,306.779,126.466,302.109z"/>
			<path style="fill:#FFFFFF;" d="M128.864,323.249l-1.257,0.068l-0.211-3.741c-0.23-4.087-3.524-7.238-7.612-7.008
				c-4.087,0.229-7.008,3.73-6.778,7.817l0.211,3.742l-1.368,0.077c-0.593,0.032-1.471,0.797-1.438,1.391l0.804,14.287
				c0.034,0.595,0.958,0.666,1.552,0.632l17.016-0.957c0.593-0.033,0.655-0.159,0.621-0.753l-0.804-14.289
				C129.565,323.923,129.456,323.214,128.864,323.249z M124.729,323.48l-8.635,0.485l-0.212-3.741
				c-0.143-2.548,1.512-4.72,4.058-4.862c2.548-0.144,4.436,1.828,4.578,4.376L124.729,323.48z"/>
		</g>
		<g>
			<path id="MobileMe_15_" style="fill:#0F859E;" d="M325.478,141.841c0,12.697-10.219,22.99-22.818,22.99h-70.602
				c-12.601,0-22.814-10.293-22.814-22.99c0-11.467,8.33-20.966,19.229-22.704c-0.139-0.805-0.215-1.633-0.215-2.485
				c0-8.044,6.474-14.564,14.46-14.564c3.561,0,6.825,1.298,9.345,3.457c4.488-10.192,10.244-19.494,26.389-19.494
				c19.58,0,28.861,15.215,28.861,31.271c0,0.671-0.029,1.336-0.074,1.995C317.646,121.452,325.478,130.726,325.478,141.841z"/>
			<polygon style="fill:#0F859E;" points="154.5,149.186 154.5,131.694 164.25,140.44 			"/>
			<polygon style="fill:#0F859E;" points="172.5,149.186 172.5,131.694 182.25,140.44 			"/>
			<polygon style="fill:#0F859E;" points="190.5,149.186 190.5,131.694 200.25,140.44 			"/>
			<path style="fill:#FFFFFF;" d="M249.717,120.035c0-4.324,3.506-7.83,7.83-7.83c4.326,0,7.831,3.506,7.831,7.83
				c0,4.325-3.505,7.831-7.831,7.831C253.223,127.866,249.717,124.359,249.717,120.035z M261.313,137.725
				c-0.692-1.112-1.1-2.42-1.1-3.824c0-2.115,0.914-4.016,2.363-5.345c-0.557-0.096-1.124-0.156-1.707-0.156h-6.645
				c-5.527,0-10.025,4.498-10.025,10.025v8.129l0.021,0.126l0.56,0.175c4.542,1.419,8.569,2.021,12.01,2.162v-3.709
				C256.79,142.036,258.621,139.186,261.313,137.725z M279.176,127.866c4.324,0,7.83-3.506,7.83-7.831c0-4.324-3.506-7.83-7.83-7.83
				c-4.325,0-7.831,3.506-7.831,7.83C271.345,124.36,274.851,127.866,279.176,127.866z M282.498,128.4h-6.645
				c-1.092,0-2.141,0.182-3.126,0.505c1.239,1.303,2.005,3.06,2.005,4.995c0,1.404-0.408,2.713-1.102,3.825
				c2.692,1.46,4.523,4.312,4.523,7.583v3.695c0.647,0.03,1.281,0.05,1.886,0.05c7.368,0,11.64-2.102,11.903-2.234l0.523-0.266
				h0.056v-8.128C292.523,132.897,288.025,128.4,282.498,128.4z M262.615,134.167c0,2.683,2.174,4.857,4.857,4.857
				c2.684,0,4.857-2.175,4.857-4.857c0-2.683-2.174-4.857-4.857-4.857C264.789,129.309,262.615,131.485,262.615,134.167z
				 M269.533,139.355h-4.121c-3.43,0-6.22,2.791-6.22,6.22v5.042l0.013,0.078l0.348,0.108c3.271,1.022,6.115,1.363,8.456,1.363
				c4.571,0,7.22-1.303,7.384-1.386l0.324-0.165l0.035,0.001v-5.042C275.752,142.146,272.963,139.355,269.533,139.355z"/>
		</g>
	</g>
</g>
</svg>
